<?xml version="1.0" encoding="UTF-8"?>
<svg version="1.1" viewBox="0 0 2000 2000" width="1280" height="1280" xmlns="http://www.w3.org/2000/svg">
  <defs>
    <linearGradient id="grad1" x1="0%" y1="0%" x2="100%" y2="0%">
      <stop offset="0%" style="stop-color:#1E40AF;stop-opacity:1" />
      <stop offset="100%" style="stop-color:#6B21A8;stop-opacity:1" />
    </linearGradient>
  </defs>
  <path transform="translate(513,543)" d="m0 0h343l1 1v715l269-3 16-1-16-12-34-24-18-13-17-12-18-13-17-12-18-13-14-10-18-13-12-9-2-5 7-11 10-13 12-17 8-11 104-144 14-19 9-13 14-19 10-14 8-11 20-28 14-19 10-14 8-11 13-18 10-14 26-36 14-19 5-8 6 1 9 7 17 12 16 12 14 10 15 11 8 6-1 5-12 16-9 13-10 14-117 162-14 19-12 17-11 15-26 36-10 14-11 15-10 14-13 18-4 6v3l17 12 15 11 17 12 36 26 17 12 54 39 17 12 18 13 14 10 9 7v4l-8 11-12 17-26 36-7 9-5-2-23-16-18-13-12-8 1 2 1 99v53l-3 1-326 3-319 1h-40l-2-2-1-7-1-17v-179z" fill="url(#grad1)" />
  <path transform="translate(1165,614)" d="m0 0 6 1 20 14 17 12 16 11 20 14 1 5-10 14-11 16-28 40-16 23-14 20-16 23-12 17-16 23-14 20-13 19-13 18-11 16-28 40-16 23-12 17-13 19-13 18-11 16-35 50-5 5-14-10-16-11-20-14-25-17-3-3 2-5 7-10 24-34 9-13 14-20 9-13 12-17 16-23 12-17 13-19 13-18 11-16 14-20 32-46 42-60 13-19 10-14 28-40 16-23z" fill="url(#grad1)" />
  <path transform="translate(1190,1027)" d="m0 0 5 1 28 20 34 24 18 13 17 12 56 40 17 12 18 13 17 12 14 10 17 12 18 13 20 14 15 11 1 5-11 15-11 16-13 18-9 13-4-1-13-9-17-12-18-13-17-12-36-26-14-10-17-12-36-26-14-10-17-12-18-13-17-12-36-26-17-12-5-4 2-4 13-18 10-14 12-17z" fill="url(#grad1)" />
</svg>
