<?xml version="1.0" encoding="UTF-8"?>
<svg version="1.1" viewBox="0 0 2000 2000" width="1280" height="1280" xmlns="http://www.w3.org/2000/svg">
<path transform="translate(1037,228)" d="m0 0 29 1 24 3 36 7 30 8 35 12 30 13 34 16 19 9 24 15 20 13 15 10 18 13 13 10 11 9 13 10 11 9 13 12 8 7 25 25 7 8 11 13 7 8 11 12 11 14 14 18 12 16 13 16 9 10 7 8 10 9 30 20 2 4-3 2h-9l-14-5-11-5h-2l15 30 12 22 10 21 9 21 13 30 9 20 12 22 8 10 12 12 11 8 12 7 12 5v4l-2 1h-18l-13-1-2 8-3 3-3 1h-15l-25-7 14 32 14 38 11 30 8 28 4 16 3 5 13 5 16 4 30 5 3 2-2 5-12 13-15 15-11 9-14 10-14 8-5 3-1 6 1 3 17-2 21-5 8-3h4l-1 6-8 7-12 5-17 4-15 2-2 23-1 9 3 5 8 6 17 9 18 6 20 6 2 4-7 4-11 2h-27l-20-3-20-6-8-1 1 8 7 15 9 27 5 21 1 7v23l-5 15-5 7-4 1-2-3 2-18-2-13-5-12-7-12-11-12-4-2 2 27v19l-4 30-4 11-1 1-8 1-1 1-4 24-5 19-8 22-9 20-15 30-12 19-10 14-9 11-8 9-14 11-10 6-16 8-3 8-6 25-5 21-3 19-1 10v20l3 19 6 15 10 19 12 15 1 3-6 1-14-2-14-5-13-7-16-12-9-8-7-8-9-11-3-1-8 9-10 13-7 10-6 12-4 16v14l3 14 7 19v4l-5 1-14-7-12-11-11-14-8-11-6-10-4-1-8 8-7 8-16 16-8 7-17 16-3 1v2l-8 7-10 9-11 9-11 10-13 10-10 8-18 13-19 12-24 13-16 7-17 5-30 5-25 2h-37l-25-2-23-4-18-6-21-9-19-10-19-12-19-14-11-9-16-13-14-11-13-12-11-11-8-7-15-14-12-11-22-22-4-2h-3l-8 15-6 11-12 14-10 8-8 4-6 1-3-2 4-7 7-21 1-6v-17l-3-11-8-15-10-13-9-10-6-7-4 1-10 13-9 10-8 7-15 10-15 7-13 4-15 1-2-1 2-4 10-13 8-13 6-13 3-15 1-9v-9l-3-25-6-29-11-37-3-6-16-9-14-11-12-11-8-9-11-15-13-20-12-21-11-25-12-35-5-23-2-17-32 16-32 15-15 5-24 4-9 1h-27l-5-2v-2l16-8 17-10 16-12 10-9 9-9h2l2-4 7-7 9-11 8-8 6-5 2-3v-10l-12-37-4-16-1-10h-3l-1 7-3 15-2 18-2 27-3 7-3 1-7-8-5-10-6-18-4-20-2-15-1-21 2-23 3-19 4-15 8-22v-14l-2-23v-61l2-23 5-35 3-18v-4l-21 8-9 1-3-2 2-5 14-10 12-11 7-8 5-10 7-26v-4l-19 6-11 1-2-1 1-4 12-8 10-9 10-14 10-18 10-25 12-38 8-27 9-26 15-37 14-30 8-16 13-24 15-24 14-20 9-12 12-15 9-11 11-14 16-17 12-12 8-7 10-9 12-9 15-12 16-12 23-14 17-10 28-13 21-8 17-5 24-4 18-2 16-1h15l23 2 25 5 10 4 17 10 3 1 2-5 11-13 9-11 19-19 13-9 13-8 19-7 16-4 20-3z" fill="#3E1903"/>
<path transform="translate(991,594)" d="m0 0 3 1-8 7-16 12-1 2 11-3 33-4 28-4 11-1h27v2l-14 8 18-1 9-1h35l7 2-2 5-4 4 10 3 12 6 7 6 3 5 3 11 5 30 8 43 4 29 7 50 6 34 2 10 4 16 2 11 1 1 3 15 3 9 5 21v5l-4 2-23 3-35 7-20 7-32 16-6 5-4 6-5 11-5 19 16-5 22-6 27-6 14-3 27-3 22-2 20-2h7l11 23 7 16 8 15 4 8 2 2v3h2l3 6 1 3-7-1-17-5-19-3h-35l-18 3-17 5-15 6-12 7-5 5h-2l-2 4-3 5-1 5 4-1 7-9 13-8 16-6h7l-3 3-16 8-16 12-4 2-2 5-4 8v6h6l20-13 11-7h4l1 22 5 16 6 8 5 6 10 7 13 4h8l11-3 8-2v-2l7-4 9-10 1-2h2l3-12 1-8v-10l-2-10-2-9 9 2 15 5 15 8 5 4 8 11 5 6v2h2l4 7 1 3h2l1 4h2v3h2l2 6h2v3h2l6 10 2 5h2v3h2l3 5v2h2l5 7 3 5 3 4 1 9-6 13-8 10-12 12-9 6-7 4-12 6v3l10 2 16-3 6-3h4v-2l8-4h2l1-3 6-4h2l2-4 12-12 6-1 22 22 11 9 15 12-1 10-6 29-5 26-11 55-8 37-10 40-11 38-8 18-12 21-9 14-11 14-12 17-11 14-8 10-9 11-7 9-13 13-8 7-10 9-14 13-8 7-15 14-12 11-8 8-10 8h-2v2l-12 8-16 13-18 13-15 10-16 8-25 9-23 5-24 3h-49l-22-3-21-5-27-9-19-9-16-10-11-9-15-12-19-14-12-10-11-9-17-16-7-6-17-17-8-7-8-8-8-7-9-8-7-8-8-9-9-11-7-11-10-14-8-11-13-18-13-21-11-21-13-34-6-20-6-25-6-32-6-25-6-30-10-44-6-29v-5l7-8 3 2 6 12 9 15 5 7 5 9 12 14 12 12 15 11 16 8 3 1h9l3-1-3-7-15-15-13-17-7-11-8-17-9-27-6-26-3-12-3-38v-59l3-39 7-65 2-7 5-3 9-4 14-3 36-3h60l31 2 38 4 32 5 29 7 22 7 5-1-1-10-5-12-7-11-8-7-14-7-10-4-10-5-16-5-26-6-25-4-22-2h-60l-1-1v-51l5-46 3-21 2-9 2-16 4-15 9-37 4-16 4-10 3-10 2-3 4-13 4-8 3-7 4-10 8-15 3-7h2l3-9 4-8 3-1 7-1 1-7h14l50 6-2-4-10-6v-3l18 1 43 12 2 1h6l-2-5-4-2-10-10v-2l5 1 12 6 7 3 8 4 8 1 12-6 20-8z" fill="#FCDABD"/>
<path transform="translate(1021,247)" d="m0 0h41l28 3 29 5v2h8l34 10 37 14 10 5 16 6 14 6 19 10 15 8 16 10 11 7v2l5 2 9 6 2 1v2l5 2 5 4 4 2v2l5 2 11 8 8 4 11 8v2l5 2 5 6 9 7v2l5 2 2 4 5 2 6 7 7 5v2l4 2 27 27 7 8 10 11 8 11 13 16 11 15 12 17 12 19 2 3-1 4-9-7-14-12-6-3h-11l-5 2v6l3 5 3 7 3 6-1 3-7-11-5-5-2-5-1-3h-2l-3-8-8-11-4-6-3-2-2-5-5-5-3-6-12-16-11-14-5-6 1-2 5 1 2-4v-17l-6-8-13-10-16-13-6-5-4-4-13-10-11-8-14-8-16-10-11-7-9-4-9-3-5-2-10-6-16-8-15-8-24-10-9-2-7-3v-2l-12-3-19-6-18-4-15-1-16-3-23-3h-13l-6 2-4 1-15 4-25 5-24 7-23 8-16 7-11 6-22 15-11 10h-2l-2 4-8 7-8 10-4 1-7-2v-2h-2v-4l-6-1-20-12-18-7-21-6-21-4-9-1h-39l-17 4-18 6h-2v2l-8 4h-4l-1 3-7 4-7 3-32 22-8 6-13 11-12 11-17 17-7 8-5 7 8 1v-2l7-4h2v-2l7-6 14-14 8-7 12-9 6-4h3l1-3 6-2 10-9 3-1 2-3 8-4h2v-2l12-7 14-7 16-6 20-4 12-1h14l21 2 21 5 16 6 16 8 4 1 1 2 10 5 16 11 6 3 1-3 8-1 14-12 7-7 8-7 15-12 15-10 17-8 24-9 14-4 24-6 28-3h33l24 2 30 5 17 4 32 10 6 1 18 8v2l9 3 10 4 3 2v2l3 1v2l5 2 10 6 5 2v2l4 2 6 4 5 2 5 5 5 2 5 5 12 11 10 8 12 11 8 7 12 11 12 12 7 8 14 14 5 4 4 6 11 13 11 16 4 4 3 6 11 17 12 18 9 19 7 15v2l-4-1-5-4-4-5-7-6-4-1h-7l-3 4-1 10-2 1-11-9-13-10-10-8h-2l7 9v2h2l11 17 11 20 9 19v3l-4-2-11-13-9-11-2-1v-2l-4-2-7-6-7-4-5 1-8 10-6 7-11 22-4-1-1-4-9-3h-8l-8 3-2 9-2 17-4-2-5-13-13-29-12-26-13-28v-2h-2l-8-14-11-18-20-28-9-11-12-14-9-8-7-8-10-10-14-11-14-10-18-10-23-11-16-6-16-4-29-4h-27l-28 4-21 6-20 8-11 6-9 7-8 8 2 4 1 3 6-1 10-7 12-7 24-8 16-4 22-3 10-1h21l22 3 17 4 18 6 17 8 13 8 7 3 4 4 7 6 10 8 5 3 6 7 10 8 7 7 10 13 11 13 11 14 2 1 4 7 10 13 3 4v3h2l4 6v2h2l4 7 6 10 9 19 5 11 15 35 5 13 3 9 6 20 6 22 8 24 4 19-1 4-8-21-8-20-9-23-14-35-4-9v-2h-2l-1 6-3 8-1 7h-3l-15-16-6-5-5 1-2 3-2 9-2-3-9-24-10-26-5-12-14-29v-2h-2l-11-17-10-13-12-13-7-7-14-11-14-10-8-6v-5l-12-12-10-7-6-4-5-3-8-4-5-1 1 7-4 4h-7l-26-7-23-3h-24l-21 3-16 5-13 5-16 8-14 8-9 7-4-4-7-9-12-13-14-11-14-9-17-8-26-8-16-4-18-3-5-1-28-1-18 2-17 3-20 5-20 8-16 8-11 7-8 6-14 10-1 2h-2v2h-2v2l-12 12h-2l-2 5-4 7-3 1-2 5h-3l-2 5-10 15-8 14-14 27-9 21-5 13-1 6h-2l-2 9-4 10-4-2v-14l1-17v-13l-10 1-9 2-2-1 1-5 8-17 9-16 8-15 13-19 9-11 12-14 5-2-3-3 2-4 7-8h-1l-12 13-1 2h-2v2h-2l-2 4-6 8h-2l-2 5h-2v2h-2l-2 4-4 6h-2l-2 5-16 26-11 16-10 13-12 20-13 21-5 7h-2v2h-2v2l-3 1-4 8h-2l-6 18h-2l-3 10-5 12-3 9-10 28-7 25-9 30h-2l-1 12-5 20h-2v13l-10 42-5 26-8 43-5 24-3 9-3 4-4-1v-16l3-30 7-41 9-38 15-59 9-31 11-36 4-13 2-7 10-29h2l2-9 8-20 7-20 7-16 9-19h2l2-5 12-20 12-19 16-24 12-17 11-14 11-13 11-12 7-7 6-7 6-5 5-5 13-12 3-1 5-5 13-11 14-10 16-11 23-14 16-8 5-3 10-3v-2l9-4 8-2 7-3 17-5 12-3 16-3 25-2 27 1 18 3 21 6 9 6 6 7 6 10 4 12 3 4 8-20 3-7 5-10 10-14 8-9 5-5 14-12 15-11 17-8 19-5z" fill="#835B3C"/>
<path transform="translate(761,457)" d="m0 0h26l18 2 17 4 15 6 15 9 13 12 7 11 4 10 1 8-1 2h-2l-1 3-5 1-13-10-15-11-21-13-11-5-16-4h-14l-16 4-18 7-12 7-10 8-9 9-13 18-8 13-9 19-12 36-7 29-4 23-3 25-3 43-2 57-3 45-4 38-7 53-9 55-4 33-3 31-3 36-2 29v39l1 25 2 26 3 18 2 17 1 9-3 3-5-7-8-19-7-23-7-31-4-25-4-38-2-27v-107l1-40v-31l-3-2h-8l-2 11-2 35-2 55-2 67-7 12-7 14-9 14-9 15-9 12-2 4h-2l-1 4h-2l-2 5-14 22h-2l-2 4-6 8-5 5h-2v2l-8 7-12 8-12 5-8 4-9 4-11 8-6 6h-2v2l-7 6h-2l-1 3-17 13-18 14-3 2h-3v2l-7 3 2-5h2l2-4h2l2-5 10-9 3-5 16-17 9-9 8-7 27-27 9-11 8-11 14-21 9-14 9-19 8-19 11-30 6-20 8-30 8-40 7-43 6-42 9-48 6-27 17-63 11-32 8-23 5-8 3-14 2-12 3-1 1-7 2-11h2l2-10 6-21 5-20 6-15 3-8 8-15 3-6h2l1-4 5-8h2l1-4 1-3h2l2-5 13-16 9-8 12-9 15-9 12-5 18-4z" fill="#835B3C"/>
<path transform="translate(1397,553)" d="m0 0 6 3 9 8 11 8 11 9h1l1-10 4-5h7l5 2 10 9v2l4 2 5 3-11-23-2-7h2l7 15 4 8 4 12 7 16 8 17 6 10 8 18 14 27 8 17 8 15 6 10 4 10 16 29 6 10 7 13 8 14 9 17 1 5-2 1-3-3-2-1v-2l-3-1-5-5-10-9-4-3v-2l-4-2-8-6v-2l-4-2-6-5v-2l-4-1-10-5v-2h-2l-7-14-9-23-12-24-5-7-10 1v7l3 7 7 14 6 17 8 20 6 17 11 27 9 21 6 16 1 1v6l-5 1-3-2v-2l-4-2-11-10-13-13v-2l-3-1-5-5-5-6-2-1v-2h-2l-8-10-6-7v-2l-4-2-7-9v-2l-3-1v10l2 8v8l-2 2h-4l1 8 7 15 2 7 10 14 12 14 11 12 4 4 7 2 10 10 8 6v2l4 2 14 11v2l5 2 6 5 7 4 9 6v2l5 2 17 10 16 8 14 6 19 5 13 2 16 3 4 3-3 3-5 1h-29l-15-3-18-4-17-6-10-3-20-11-8-6v-2l-5-2v-2l-4-2-16-13-14-11-7-6v-2l-4-2-5-6-22-22-11-14-6-10-12-24-6-15-7-1-5-8-9-20-7-20-18-51-7-8-6-14-2-5-1 2 3 18 1 7 1 10 8 26 14 40 12 29 12 27 9 17 5 13 8 13 5 10 2 1 9 21 7 13 7 11 8 12 8 9v2h2l9 11 8 9 7 6 4 4v2l4 2 4 3v2l4 2 8 7 14 10 10 6 17 9v4l-2 1h-17l-31-8-16-7-15-7-4-1v4l8 10 7 8 15 14 2 2v3l-4 1-13-5-9-5-8-5-12-8-4-5-6-5v-2l-4-2-10-12-6-9-9-11-8-11-12-18-9-13-9-15-6-12-11-32-6-18-5-19-1-11h2v-3l6 2h3l1-9-14-28-6-15-6-13-6-18-10-36-9-29-12-39-2-3 1-4 2 1 1-17 2-9 5-3 4-1h8l9 4 2 4 3 1 2-6 8-16 9-10 7-9 6 1 10 7 6 5v2l4 2 12 14 8 10 2 1-4-9-8-17-10-18-9-13v-2h-2l-6-8z" fill="#825A3B"/>
<path transform="translate(755,412)" d="m0 0h21l23 3 28 6 15 5 18 8 11 6 16 13 11 11 8 13 6 16v7l-1 5h-3v-2l-5-2-11-10-11-9-10-9-13-9-12-6-19-7-22-5-17-2h-28l-15 2-19 5-15 5-16 8-15 11-14 14-10 13-10 15-8 14-4 10h-3l-3 9-17 48-3 10-2 12-6 21h-2v7l-2 5h-2l-1 6-11 24-6 16-6 17-5 15-6 23-7 22-8 33-5 33-8 42-8 49-5 26-4 19-7 30-5 18-8 22-7 14-1 3-4 4-6 10-10 19-15 30-5 7-4 7-5 3-1-7-3-29-1-25 3-29 5-23 6-23 11-31 7-16 7-10 5-10 1-7-6 2h-4l-1 3-8 7-7 8-10 10-7 8-4 4h-2l-2 4-15 16-5 5-8 11-6 9-11 22-10 28-7 24-3 8h-3v-11l3-22 2-10h2l2-10 6-20h2l1-6 8-16 3-7 5-6 1-3 5-5 12-13 9-10 16-15 3-5 6-5 2-4 5-5 7-9 8-12 5-7 3-7 4-5 4-8 1-4 3-3 4-10 1-2h2l2-9h2l1-7h2l1-5 11-30 2-9h2l1-10h2l2-9 4-20 6-23 8-36 2-11v-14l1-8h2l1-13 6-30 10-36 12-35 8-18 10-19 5-11h2l2-6 3-5h2l2-4 3-5h2l1-4 3-1 1-4 3-1 2-5 3-1 2-5 9-8 1-2 7-4 3-1v-2l7-4 16-10 18-10 12-5h2v-2l14-5 27-4z" fill="#835B3C"/>
<path transform="translate(1260,626)" d="m0 0 4 1 8 7 7 7 6 7h1l2-10 4-11h2l10 23 10 26 13 32 6 15 4 12-1-9 2 1 11 51 10 38 15 61 5 19 12 38 11 29 13 33 8 17 12 22 12 17 8 11 7 11 11 12 7 8 9 9 14 11 12 9 19 10 2 3-1 1h-9l-16-4-16-5-6-2h-21l-12-5-16-9-11-7-12-8-14-11-7-7-2-1v-2l-4-2-11-11-11-14-8-9v-2h-2l-14-20-8-14-5-9-3-5-2-8h8l19 4h11l-2-10-8-11-5-5-13-9-14-8-14-7-3-10-9-44-4-27-5-46-8-52-7-39-9-43-9-33 3-13z" fill="#825A3B"/>
<path transform="translate(591,441)" d="m0 0v3l-9 10 2 4 2 2-7 2-9 10-13 17-9 13-6 10-8 16-6 11-8 16-1 3 11-2 10-1 1 1v13l-1 17v14l3 2 3-10 3-9h1l-1 9-2 6h-2l-2 10-7 34-9 46-8 39-5 18-5 14-7 17-5 13-4 9-11 27-7 18-5 12-5 13-5 12-14 32-14 20-5 4h-2l2-14 3-11 3-17 4-21v-9l-1-2-5-1v2h-2l-1 4-7 17-22 44-6 11-11 19-4 8-3 8-2 1-1-9v-15l1-16 4 1 2-4 4-12 9-49 10-50 8-33 1-13h2l1-7 5-25h2l2-10 8-26 7-25 8-22 3-9 9-22h2l2-9 4-9h2l2-6 2-3h3v-2h2v-2l4-4 12-19 13-22 9-12 10-14 12-19 11-18h2l2-5 4-5h2v-2h2l2-5h2l2-4 6-8h2v-2h2l2-4z" fill="#835B3C"/>
<path transform="translate(1052,460)" d="m0 0h10l21 2 22 5 8 4 7 3 6 3v2l4 1 10 7 3 1v2l5 2 4 3v2l4 2 15 14 6 7 5 5 5 6 4 5 13 18 7 14 4 10 8 19 5 15 3 8 4 11 8 25 5 25 2 5 3 19v6h2l8 43 12 80 8 55 7 39v1l-25-1-3-3-9-20-9-23-12-31-11-33-7-25-12-48-8-29-9-35-10-42-12-37-8-20-9-20-9-16-13-16-7-8-15-12-16-9-16-7-15-4-8-1h-27l-14 3-15 6-13 9-12 11-9 14-4 9-1-4 9-27 7-11 9-10 8-7 12-7 24-8 20-4h6v-2z" fill="#825A3B"/>
<path transform="translate(1214,1421)" d="m0 0 5 1 6 4 4 7v10h-2l-2 6-5 5-6 4h-2l-2 4-7 6h-2l-1 3-5 4-3 1-4 4-8 7-7 6-9 5-14 9-23 12-12 5h-2v2l-14 4-37 6-29 3h-44l-30-3-24-4-13-2v-2l-7-1-16-6-7-2-18-10-6-4v-2h-3v-2h-3v-2l-4-1-5-3-15-12-6-4-10-9-9-6-3-3-4-2v-2l-4-2-8-7-3-6v-8l2-7 5-4 9-1 5 2v6l-2 7 10 3 5 2 28 5 29 4 18 2 43 3 46 1h53l42-1 47-4 17-2 3-1 17-2 23-4 16-5 2-2-1-12z" fill="#411B06"/>
<path transform="translate(513,1187)" d="m0 0 7 1 5 5 6 4 5 4 5 3v3l4 2 4 5v12l-1 8h-2l-1 9-7 30-7 11-2 3v5l10 5v42l6 7 6 5 4 1-7-12-4-13v-17l2-10 1-3h2l2-9 5-5 3-1 7-8 4-4h3l1-3 5-1 2 3 5 28 3 14 2 21h2l8 37-1 8-3 2-1 3 5 2 6 9 4 14 3 15-1 7-8 4-20 4-18-2-20-10v-2l-6-2v-2l-4-2-13-13-8-10v-2h-2l-8-12-10-13-5-9-11-19-4-8-6-13-9-25-4-13-2-14v-29l6-7 4-3h2v-2l8-6 10-8 10-7 15-15z" fill="#613A1D"/>
<path transform="translate(1372,1209)" d="m0 0 4 1 21 21 11 9 15 12-1 10-6 29-5 26-11 55-8 37-10 40-11 38-8 18-12 21-9 14-11 14-12 17-11 14-8 10-9 11-7 9-13 13-8 7-10 9-14 13-8 7-15 14-12 11-8 8-10 8h-2v2l-12 8-16 13-18 13-15 10-16 8-25 9-23 5-24 3h-49l-22-3-21-5-27-9-19-9-16-10-11-9-15-12-19-14-12-10-11-9-17-16-7-6-17-17-8-7-8-8-8-7-9-8-7-8-8-9-9-11-7-11-10-14-8-11-13-18-13-21-11-21-13-34-6-20-6-25-6-32-6-25-6-30-10-44-6-29v-5l7-8 3 2 6 12 9 15 5 7 5 9 12 14 12 12 15 11 16 8 3 1h9l3-1-2-7h2l1 2v7l-5 3-13-1-19-9-8-5v-2l-4-1-7-5-4-2-5-6h-8l-3 3v12l1 13 3 13 2 12 4 20 2 7 4 19 1 11 2 4 3 15 2 5 2 10 5 12 3 11 5 10 5 12 3 7 5 12 5 8v2h2l4 7 6 10 1 3 6 5 11 18 5 6 9 12 4 6 5 5 9 10 4 5v2h3v2h2v2h2l5 6 8 6v2l4 2 5 4 5 5v2l4 2v2l4 2 11 9 3 2v2l4 2 10 9 5 3 5 5 11 9 13 10 8 6 4 2v2l4 1 10 5 11 6 19 9 16 5 26 6 31 3 34 1h18l19-1 31-4 13-3 16-5 12-5 16-8 14-8 6-3 9-6 5-3 11-8 8-7 5-3 16-12 5-5 10-9h2v-2l11-9 6-5 5-5 10-8 4-1 2-4 6-5 4-4 4-7 9-11 9-14 10-13 4-5 2-4h2l2-5 4-6h2l2-5 6-9 7-10 11-21 6-15 5-12 5-13 7-28 3-20 10-49 6-29 5-23 5-30 2-15-2-8-7-11v-2h-2l-7-9-3-5v-2l-4-2-5-5-5-1h-3l-2 5-9 8-11 6-10 5-14 4h-11l-3-3-6-3v-1l16-1 11-3 3-2h4v-2l8-4h2l1-3 6-4h2l2-4 12-12z" fill="#F6A885"/>
<path transform="translate(1509,1204)" d="m0 0 10 2 2 1v2l6 2 14 6 13 8 7 10 2 5v32l-4 16-9 24-8 21-9 18h-2l-1 4-5 9-8 12h-2l-2 5-8 11-3 3-1 3h-2l-1 5-4 5-8 7-9 7-16 8-10 4-14 3h-9l-12-3-6-1-4-3 2-13 2-8h2v-9l3-10 8-6 1-6-5-1v-8l3-14 3-1 1-11 8-40 5-28 1-2 3 1 6 8 9 10 8 13 1 4h2l2 5 1 8-3 15-3 6-2 7 5-5 8-4 2-9v-23l-1-4h-2l-6-10v-4l-4-2-2-4v-8l1-2 25 1 17-1h12l2 4 1 12 2-14 4-8 7-4 3-3v-6l-1-2-4 1-2 2-7-1-4-3-1-3v-7l1-3 3-1-6-10-8-16-1-8z" fill="#FCDABD"/>
<path transform="translate(1195,323)" d="m0 0 12 3 31 13 14 7 5 2v2l5 2 10 6 5 2v2l4 2 6 4 5 2 5 5 5 2 5 5 12 11 10 8 12 11 8 7 12 11 12 12 7 8 14 14 5 4 4 6 11 13 11 16 4 4 3 6 11 17 12 18 9 19 7 15v2l-4-1-5-4-4-5-7-6-4-1h-7l-3 4-1 10-2 1-11-9-13-10-10-8h-2l7 9v2h2l11 17 11 20 9 19v3l-4-2-11-13-9-11-2-1v-2l-4-2-7-6-7-4-5 1-8 10-6 7-11 22-4-1-1-4-9-3h-8l-8 3-2 9-2 17-4-2-5-13-13-29-12-26-13-28v-2h-2l-1-6 16 12 2 1h8l5-3v-8l-9-19-4-5v-3l6 2 11 7 12 9 15 9 5 1-1-13-2-13v-11l3-5 10-4 20-4 3-3 1-3v-9l-5-12-7-11-14-15-15-14-12-11-11-9-13-11-13-10-10-7-19-12-21-13-27-15-17-11z" fill="#D8A274"/>
<path transform="translate(1021,247)" d="m0 0h41l28 3 29 5v2h8l34 10 37 14 10 5 16 6 14 6 19 10 15 8 16 10 11 7v2l5 2 9 6 2 1v2l5 2 5 4 4 2v2l5 2 11 8 8 4 11 8v2l5 2 5 6 9 7v2l5 2 2 4 5 2 6 7 7 5v2l4 2 27 27 7 8 10 11 8 11 13 16 11 15 12 17 12 19 2 3-1 4-9-7-14-12-6-3h-11l-5 2v6l3 5 3 7 3 6-1 3-7-11-5-5-2-5-1-3h-2l-3-8-8-11-4-6-3-2-2-5-5-5-3-6-12-16-11-14-5-6 1-2 5 1 2-4v-17l-6-8-13-10-16-13-6-5-4-4-13-10-11-8-14-8-16-10-11-7-9-4-9-3-5-2-10-6-16-8-15-8-24-10-9-2-7-3v-2l-12-3-19-6-18-4-17-3-30-5-35-4-13-1h-33l-13 1-27 6-23 7-16 6-5 4h-2v2l-4 3h-2v2h-2v2h-2l-2 4-6 9-12 23-4 11h-2l-1 2 1-11 6-16 4-9 5-10 10-14 8-9 5-5 14-12 15-11 17-8 19-5z" fill="#C89970"/>
<path transform="translate(752,611)" d="m0 0h11l1 4-13 24-9 19-10 26-11 34-6 24-5 30-6 51-2 29v25l3 30 3 17v7l-26 6-16 6-10 5h-3l3-24 7-60 5-63 4-76 2-48 2-6h2l2-4 7-8 11-11 12-9 6-5 15-7 13-4v-3l-7-1-2-3 2-2 6-2z" fill="#F8A886"/>
<path transform="translate(844,1460)" d="m0 0 10 1 24 4 53 4 17 1 74 1 46-1 57-3 37-5 16-2-1 5-8 8-8 6h-2v2l-4 1v2l-12 8-5 3h-3v2l-20 10-15 5-13 4-30 5-26 3h-48l-16-2-33-6-11-3-8-3-20-8-14-8-9-7-16-13-10-10-2-1z" fill="#FDFBF8"/>
<path transform="translate(1472,581)" d="m0 0 3 4 12 23 16 32 8 17 13 23 9 19 10 19 8 16 14 24 14 27 8 14 10 18 6 15 6 12 8 18 5 13 5 12 4 17 3 9 3 11v7l-6-1-12-9-13-11-8-6-6-7-11-11v-2h-2v-2h-2l-7-8-8-11-9-15-9-19-15-40-5-12-5-14-3-7-10-25-6-13-9-18-9 1 3 7 12 25 6 16 6 15 6 17 5 11 6 17 9 20 10 25 6 12 2 2v3l4 2 7 9v2h2l7 8 3 3v2h2l7 8 12 11 8 8 12 9 1 4-8-1-9-5-7-3-15-8-17-11-9-6-11-8-11-9-4-2-4-4v-2l-4-2-7-5v-2l-3-1-13-13-4-5v-2l-4-2-2-5-3-1-1-4-3-1-6-9-3-3-6-10-4-6v-2h-5l5 13 7 14 2 2 2 6 8 10v3l-8-9-10-15-3-9-6-14 1-5 5-2v-8l-2-8v-10l2-1v2h2l6 8 12 14 7 8v2h2v2l4 2 5 6 6 5 7 8 6 5 5 6 10 8v2l8 1-2-7-8-20-11-27-10-25-8-21-6-17-4-9-8-16-1-9 1-2 5-2h5l6 8 8 16 5 11 10 24 4 8v2h2v2l9 3 5 3 5 5 5 4v2l5 2 7 6 5 5 11 10 6 5v2l5 2h1l-3-7-8-16-16-28-6-11-14-25-5-12-7-11-11-23-9-17-8-16-9-20-7-12-9-20-5-11z" fill="#5B3418"/>
<path transform="translate(803,301)" d="m0 0 27 1 18 3 21 6 9 6 6 7 6 10 1 9-4-1-7-5v-2l-4-2-6-4v-2l-10-3-19-5-20-3-22-1-27 2-24 6-20 7-16 7-15 8-21 13-10 7-14 9-19 14-13 13h-2l-1 3-8 7-20 20-1 2h-2l-2 4h-2l-2 4-7 9-4 3h-2l-2 5-9 10-4 6-7 10-6 8-9 13-6 9-12 17-7 11-5 8-3 6h-2l-1 4-12 21-5 10-9 17-6 14-2 7h-2l-3 10-5 12-3 9-10 28-7 25-9 30h-2l-1 12-5 20h-2v13l-10 42-5 26-8 43-5 24-3 9-3 4-4-1v-16l3-30 7-41 9-38 15-59 9-31 11-36 4-13 2-7 10-29h2l2-9 8-20 7-20 7-16 9-19h2l2-5 12-20 12-19 16-24 12-17 11-14 11-13 11-12 7-7 6-7 6-5 5-5 13-12 3-1 5-5 13-11 14-10 16-11 23-14 16-8 5-3 10-3v-2l9-4 8-2 7-3 17-5 12-3 16-3z" fill="#FCF7F3"/>
<path transform="translate(1386,869)" d="m0 0 2 4 7 20 9 26 8 16 7 11 11 16 7 10 10 15 9 10 5 8 8 10 5 6 5 5 5 4 5 5 11 7 6 4 16 8 8 2h2l-3-5-8-8-8-7-7-8-7-9-1-4 3-1 12 5 17 8 16 5 20 5h19v-4l-6-2-11-6-19-12-11-9v-2l-6-3v-2l-4-2-8-7-5-5v-2l-4-2-10-11-5-6v-2h-2l-9-11-10-15-9-15-7-15-4-9v-3l-3-1v-3l3 1 9 19 9 15 11 18 8 11 9 10v2h2v2h2l8 10 10 10 2 1v2l5 2 7 7 4 3v2l4 2 13 10 7 4 13 8 16 8 4 3-1 3-8 2h-9v3l4 2 8 7 5 4v2l4 2 8 7v2l4 1 5 5 9 7 12 9 10 6 2 5-8-1-13-5-18-7-15-10-11-8-5-5-5-4-7-8-3-4v-5l5-3 1-2-13-2-18-6h-6l3 6 7 8 5 6 8 7 5 6 3 3v2l3 1 5 6 4 6 8 13 5 5 6 9 2 1 4 8 11 19 4 10 1 6-3 3-4-2v-2h-2l-5-6-6-5-7-4-8-4-21-7-10-3-9-4-10-5-6-4-7-4-13-10-12-11-8-7-5-5-2-4-3-1-9-11-8-10-11-18-6-10v-2h-2l-8-16-9-21-14-35-7-20-13-41-5-14z" fill="#5B3418"/>
<path transform="translate(775,1043)" d="m0 0h39l21 4 13 4 13 6 12 7 10 10 3 4-1 5-5-1-7-8-10-7-13-5-7-2 3 3 8 4 11 7 10 9 8 10 3 5-2 5-3 2-4-1-8-6-8-4-19-10 2 6v20l-5 14-11 12-8 6-13 5-5 1h-9l-7-2-7-3v-2l-4-1-8-7-8-11-4-11-1-5v-14l2-11 3-7-21 6-14 7-3 2h-3v2l-8 6-8 8-8 7-10 10-9 4-9-3-2-3 1-5 7-11 8-9 7-8 12-11 13-10 9-5 16-8 18-6z" fill="#3E1903"/>
<path transform="translate(514,1189)" d="m0 0 6 2 7 5 1 6-6 7-5 4-8 10-11 14-5 7-5 13-2 10v17l3 12 8 15 9 12 3 2v2l4 2 10 9 14 10 16 12 21 13 11 6 11 7 6 4 4 9 5 20v8l-5 3-9 3h-23l-18-6-11-7-10-9-10-10-8-10-12-16-7-10-10-17-14-27-5-11-7-20-4-18-1-10v-23l5-6 17-13 11-9 5-2v-2l10-8z" fill="#FCDABD"/>
<path transform="translate(594,653)" d="m0 0 1 4-6 15-9 25-11 31-10 34-13 49-6 36-7 37-6 39-7 38-8 39-5 19-8 27-5 13-4 8-9 22-8 18-4 7-7 11-9 17h-2l-2 4-7 10-11 14-9 9-5 1-2-10-1-26v-14l2-35-2-7-4-1-3 4-2 8-4 22-1 8-2 1-4-11v-9l-1-1v-11l4-27 5-23 6-15 15-30 7-13-7 1-5 2v2h-2l-2 5-8 11-5 11-11 25-7 20-1 4h-2l-1 9-2 7-4 18-3 18-4 14-4 6-3-2-3-8-1-24 2-21 4-25 9-27h2l-2 9-5 16h-2l-1 10-3 22-1 11 3-1 8-28 7-20 5-13 7-14 7-12 7-10 7-9 8-7 9-10 5-5 7-8h2l2-4 14-14 7-8 4-4 11-3-1 8-6 12-6 8-9 21-12 36-5 22-3 14-3 29 1 25 3 30 1 5 5-5 6-10 10-19 11-22 5-9 8-13 3-1 1-4 6-13 9-24 5-21 8-33 5-26 12-72 7-37 5-31 7-28 8-26 6-22 7-21 4-11 9-22 7-15z" fill="#5B3418"/>
<path transform="translate(1254,1190)" d="m0 0 6 1 5 3v2l4 2 7 5 4 2v2h2v2h2v2l4 2 9 10 3 5-2 4-1 7 3 1v3l5 4 5 3 1 1h11l16-5 16-8 10-8 4-6 7-1 6 5 7 8 3 5 4 5v2h2l9 15 1 8-4 26-3 17-6 28-10 49-5 24-4 24-6 24-8 20-3 8-5 12-11 21-7 10-6 9-3 5h-2l-2 5-4 6-2 1-3 5-12 16-10 15-8 10-6 9h-2l-1 3-7 6-3 3-11 8-3 3h-2l-1 3-11 9-4 4h-2v2l-11 9-5 5-7 6-9 7-4 2-4 3h-2l-1 3-14 10-9 6-8 5-16 8-14 8-6 2-12 5-21 6-37 5-26 1h-21l-35-2-24-3-25-6-17-6-14-7-11-6-14-7-1-2-7-4-13-10-11-9-9-7v-2l-5-2-12-11-2-1v-2l-4-2-18-15-5-5v-2l-4-2-5-4v-2l-4-2-5-4v-2l-4-2v-2h-2v-2h-2v-2h-3l-8-10v-2l-4-2-4-5v-2l-3-1-4-6-9-12v-2l-3-1-10-16-3-5-3-2v-2l-3-1-6-12-4-5v-3h-2l-9-16-3-7-4-10-8-18-5-16-4-11-2-9-2-5-2-12-2-4-2-17-3-13-2-7-4-20-2-12-3-15-1-11v-12l4-4h8l1 3 4 2 1 2 9 5 5 3 2 3 16 8 9 4 13 1 5-2v-6h1v7l-5 5-3 1h-8l-11-5-12-5-23-14-4-3-6-2-2 5 1-1 7-1 1 2h-5l-3 5 1 9v7l4 20 2 12 2 1 1 9 2 8 1 3 1 10 2 4h1l3 13 3 12 3 7 2 9 6 18 5 11 6 17 4 10 6 9 5 11v2h2l3 7 2 2 5 8v3h2v2h2l11 17 5 7 1 4 8 10 4 4 5 4 1 3 5 5v2h2v2h2v2l4 2v2l5 2v2h2l4 4 5 4 5 5 11 9 8 7v2l4 2 9 7v2l4 2 9 9 7 5v2l4 2v2l4 2 5 4v2l6 2 3 3 7 6 10 6 8 5 24 13 6 4 16 5 26 6 20 3v2l11 1h11v-2l10 1v1l11 1h21l26-2 21-3 10-2 3-1 12-3 17-6 15-8 28-14 7-5 8-4 4-4 9-7h2l1-3 8-6 4-2v-2h2v-2l8-7 10-9h2l1-3 5-4h2v-2h2v-2l5-4h2l1-3 5-4 8-6 11-8 8-8 9-11 10-15 7-11 7-10 1-2h2l2-5 8-11 2-1 6-12 7-11 7-10 13-26 5-12 5-16 4-18 3-12 3-16 7-36 3-12 3-15 2-15 2-13 2-8 2-12 6-24-1-8-3-6-6-8v-2h-2l-9-12v-2l-3-1-2-4-6-1v2l-7 3-3 3-5 3h-3v2l-9 4-8 3-22 5-7 1h-18l-15-2-26-9 1-4h6l-1-5-4-9-6-8-8-7v-2h-3l-1-4-4-2-4-7v-3l8 1 4 5v2l5 2 5 4 7 4v2h2v2h3v2h2v2l5 2 5 3 8 2-5-10-3-5-6-4-9-11-3-5z" fill="#FDCEAF"/>
<path transform="translate(1203,790)" d="m0 0 2 2 3 11 2 4 2 15 5 19 11 31 8 19 10 24 9 20 18 35 8 13 10 21 7 14 3 5 3 7 5 7 5 9v2h2v2h2l5 10 5 13v2h2l6 18 4 9v2h2l7 16 3 5v2h2l2 7h2l5 10v2h2l3 6 7 12 1 3 5 5 8 11 1 3h2l4 6 8 9v3l4 2v2l4 2 11 11 2 1v2l5 2 9 8 15 11 11 7 18 8 6 3-1 4-3 1h-10l-8-2-10-4-17-9-10-7-5-3v-2l-4-2-14-12v-2l-4-1-5-5v-2l-4-2v-2l-4-2-5-5-4-5-7-10-12-17-10-13-12-18-10-17-9-15-10-18-13-22-8-14-8-16-11-20-12-26-10-23-3-10-8-17-8-21-9-32-7-30v-6h-2l-2-11-2-17-5-32z" fill="#5B3418"/>
<path transform="translate(758,412)" d="m0 0h18l23 3 28 6 15 5 18 8 11 6 16 13 11 11 8 13 6 16v7l-1 5h-3v-2l-5-2-11-10-11-9-10-9-13-9-12-6-19-7-22-5-17-2h-28l-15 2-19 5-15 5-16 8-15 11-14 14-10 13-10 15-8 14-4 10h-2l2-5 2-7-21-1-1-4 9-20 12-21 9-12 12-12h2v-2l6-2v-2l29-16 12-7 25-10 31-6z" fill="#825A3B"/>
<path transform="translate(1375,677)" d="m0 0 3 4 8 20 4 2 4 8 16 46 7 20 7 16 6 11 7 1 5 12 9 19 4 6 6 12 9 11 5 7 8 7 9 9v2l3 1 6 7 2 1v2l4 2 10 9 14 11 13 10 3 3 2 1v2l4 2 11 7 16 8 24 8 18 4 15 3h29l7-1-1-3-9-2-20-4-18-4-15-6-16-8-18-10-1-2 6 2 16 8 22 10 19 5 33 6 21 3 1 3-6 3-12 3-11 2h-19l-11-1-23-5-42-8-24-6-10-6h-3l1 6 3 4v2l4 2 1 3 3 1 6 7 2 1v2l4 2 9 6 16 4 10 1h11l2-4v-2l8-1 9 3 4 2 3 9 2 22v11l-1 1-10-1-18-6-19-8-11-6-12-8-12-9-4-2-6-7-8-7-8-8-4-3v-2h-2l-6-7-5-5-11-15-10-14-10-19-9-15-8-17-8-16-7-15-5-14-4-9-8-16-10-24-9-24-13-40-5-10h-2l-3 6 1 7 6 20 12 36 18 45 8 18-1 2-7-15-10-22-10-26-8-23-11-33-2-9v-10l-3-13-1-9z" fill="#5B3418"/>
<path transform="translate(1007,431)" d="m0 0h24l23 3 26 7h7l3-3v-7h5l8 4 5 3 10 7 9 7 10 10v5l2 3-5-2-11-7-16-7-12-4-18 1-9 3-10 2h-10l-16 3-25 3-19 5-14 7-9 7-7 7-8 13-6 13-3 9-3 27-3 36v9l-6-3-6-8-9-10-11-11-3-2-1-24-3-16-6-16-7-11-6-12-8-9h3l12 11 22 18 2 1v2h3v-12l-3-9 1-3 6 16 3 13 5-2 2-3v-10l-5-16-6-13 1-2 3 3 9-7 23-13 11-5 18-6 11-3z" fill="#5B3418"/>
<path transform="translate(1473,529)" d="m0 0h11l7 4 10 9 12 9 2-3 8 15 8 17 16 32 13 24 11 21 12 27 13 30 10 23 6 15 4 8 2 9-2 2-3-2v-2l-4-2-10-13-5-6-2-1v-2l-4-2-4-4v-2l-4-2-5-6-8-7-5-4-7-8-1-3h-2l-7-10-7-14-10-19-11-21-8-16-7-12-11-23-11-21-9-15v-2l-3-1 1-4 7 11-2-7-3-4-3-7-1-2v-6l2-2z" fill="#825A3B"/>
<path transform="translate(755,412)" d="m0 0 9 1-3 2-35 7-12 5-14 7-22 12-12 7h-2v2l-3 2h-3v2l-8 7-7 7-9 13-14 26-5 12v3l19 1 2 1-1 7-7 14-17 48-16 52-5 13-4-2-4-13-16-4-5 1-12 34-4 6h-2v-12l5-29 6-25 7-25 12-35 8-18 10-19 5-11h2l2-6 3-5h2l2-4 3-5h2l1-4 3-1 1-4 3-1 2-5 3-1 2-5 9-8 1-2 7-4 3-1v-2l7-4 16-10 18-10 12-5h2v-2l14-5 27-4z" fill="#D9A275"/>
<path transform="translate(1509,1204)" d="m0 0 10 2 2 1v2l6 2 14 6 13 8 7 10 2 5v32l-4 16-9 24-8 21-9 18h-2l-1 4-5 9-8 12h-2l-2 5-8 11-3 3-1 3h-2l-1 5-4 5-8 7-9 7-16 8-10 4-14 3h-9l-12-3-6-1-4-3 2-13 2-8h2v-9l3-10 8-6 1-6-5-1v-8l3-14 3-1 1-11 8-40 5-28 1-2 3 1 6 8 9 10 8 13 1 4h2l2 5 1 8-3 15-3 6-2 7 5-5 8-4 2-9v-23l-1-4h-2l-6-10v-4l-4-2-2-4v-8l1-2 25 1 17-1h12l2 4 1 12 2-14 4-8 7-4 3-3v-6l-1-2-4 1-2 2-7-1-4-3-1-3v-7l1-3 3-1-6-10-8-16-1-8zm5 5 1 8 8 14 11 14 6 9 1 7-3 6-9 6-3 25-5 12-8 11-14 14-24 16-10 8-11 9-9 6-15 9-13 8-4 12-4 18v7l5 3 15 3h12l14-3 17-10 10-8 14-14 14-19 10-14 9-15 11-21 11-29 7-20 2-9v-25l-2-10-6-8-17-12-14-7z" fill="#6C4427"/>
<path transform="translate(578,1447)" d="m0 0h6l6 2 18-2 8 1 6 9 4 11 1 5 2 7 3 9 5 14 3 7 4 6 6 12 1 3 2 1 6 9 8 11 4 7 4 5 5 7 3 5 8 9 10 14 4 6 1 6-2 9-8 16-2 1-6-25-5-11-6-9-1-3-5-5-3-4v-3l-4-2-2-4-4-2v-2h-2l-4-6-7-12-5-15-1-8h-2l-3 17-3 9-5 9-7 11-5 6h-2v2l-4 1-1 3-10 8-3 1-3 3-5-1v-8l3-5 3-16v-35l-2-16-6-26-10-30-2-5 1-5z" fill="#5B3418"/>
<path transform="translate(1407,1447)" d="m0 0 23 3h11l2 2v7l-5 16-4 15-5 25-2 25v9l3 19 2 6 4 13 1 6-4 2-8-4-5-4v-2l-4-2-4-3-5-5-7-8v-2h-2l-5-9-8-14-2-9-3 2-2 8-3 9h-2l-2 5-3 5-5 8-4 4-7 9-6 9h-2l-2 5-2 7h-2l-1 4-2 6-2 9-2 16-4 1v-3h-2l-11-22 1-7 7-11 4-5 5-5 2-4 2-1 4-7h2l2-4 3-5 10-12 2-5 8-10 3-6h2l3-9 5-12 8-19 5-12 8-25 4-8z" fill="#5B3418"/>
<path transform="translate(1021,247)" d="m0 0h41l28 3 29 5v2h8l34 10 37 14 10 5 16 6 14 6 19 10 15 8 16 10 11 7v2l5 2 9 6 2 1v2l5 2 5 4 4 2v2l5 2 11 8 8 4 11 8v2l5 2 5 6 9 7v2l5 2 2 4 5 2 6 7 7 5v2l4 2 3 5v4l-4-2-16-12-14-12-10-9-17-13-9-6-22-13-17-11-16-10-18-11-24-13-35-17-27-10-42-13-18-5-28-5-24-3-18-1h-23l-22 2-22 5-13 5-11 6-11 7-10 4-9 6-10 9-10 13-7 11-5 10-3 15h-2l-1 2 1-11 6-16 4-9 5-10 10-14 8-9 5-5 14-12 15-11 17-8 19-5z" fill="#FCF6F0"/>
<path transform="translate(1148,423)" d="m0 0 5 1 5 3 7 3 5 5 10 8 5 3 6 7 10 8 7 7 10 13 11 13 11 14 2 1 4 7 10 13 3 4v3h2l4 6v2h2l4 7 6 10 9 19 5 11 15 35 5 13 3 9 6 20 6 22 8 24 4 19-1 4-8-21-8-20-9-23-14-35-4-9v-2h-2l-1 6-3 8-1 7h-3l-15-16-6-5-5 1-2 3-2 9-2-3-9-24-10-26-5-12-15-31 1-2 1 1h37l-6-11-10-16-9-12-8-11-10-13-13-14-11-9-9-6-12-10-2-1v-2l-4-2-9-9z" fill="#D7A274"/>
<path transform="translate(1052,460)" d="m0 0h10l21 2 22 5 8 4 7 3 6 3v2l4 1 10 7 3 1v2l5 2 4 3v2l4 2 15 14 6 7 5 5 5 6 4 5 13 18 7 14 4 10 8 19 5 15 3 8 4 11 8 25 5 25 2 5 3 19 1 7h-2l-12-29-11-27-3-5v-2l-5 2-4 6-2 5-1 8h-2l-7-14-9-15-7-17-11-33-7-23 7-5v-7l-6-16-7-13-8-10-11-12-17-13-16-9-24-9-20-6-21-4v-2z" fill="#D7A174"/>
<path transform="translate(1372,1209)" d="m0 0 4 1 21 21 11 9 15 12-1 10-6 29-5 26-11 55-8 37-10 40-11 38-8 18-12 21-9 14-11 14-12 17-11 14-8 10-9 11-7 9-13 13-8 7-10 9-14 13-8 7-15 14-12 11-8 8-7 5-3-1 2-4h2l2-4 5-5 2-3h2l2-4h2l2-6 10-8 11-11h2v-2l11-9 6-5 5-5 10-8 4-1 2-4 6-5 4-4 4-7 9-11 9-14 10-13 4-5 2-4h2l2-5 4-6h2l2-5 6-9 7-10 11-21 6-15 5-12 5-13 7-28 3-20 10-49 6-29 5-23 5-30 2-15-2-8-7-11v-2h-2l-7-9-3-5v-2l-4-2-5-5-5-1h-3l-2 5-9 8-11 6-10 5-14 4h-11l-3-3-6-3v-1l16-1 11-3 3-2h4v-2l8-4h2l1-3 6-4h2l2-4 12-12z" fill="#F4A784"/>
<path transform="translate(678,496)" d="m0 0 1 4-10 15-9 19-6 13-8 20h8l2 1v13l-5 43-6 35-5 23-1 2-4-2-7-8-6-3-6 36-5 28-9 56-5 35-2 19-2 1v-49l3-46 6-59 5-31 5-21 2-11h2l2-10 6-21 5-20 6-15 3-8 8-15 3-6h2l1-4 5-8h2l1-4 1-3h2l2-5 9-11z" fill="#D9A375"/>
<path transform="translate(1045,1332)" d="m0 0h12l8 4 6 9-1 6-9 15-8 8-17 13-12 5-9 2h-19l-11-4-12-7-9-6v-2l-4-2-8-11-6-10-1-9 4-6 7-4h13l20 6 13 2h10l18-4z" fill="#F8A886"/>
<path transform="translate(1020,276)" d="m0 0h33l31 3 29 4 18 3 9 2v1h-7l-16-3-23-3h-13l-6 2-4 1-15 4-25 5-24 7-23 8-16 7-11 6-22 15-11 10h-2l-2 4-8 7-8 10-4 1-7-2v-2h-2v-4l-6-1-20-12-18-7-21-6-21-4-9-1h-39l-10 1 4-2 11-2 11-1h18l23 3 24 6 21 8 2 1-5-5-8-5-3-6 1-1 10 1 9 2 12 6 10 8 8 8 1 9 2-1 6-17 13-25 7-9h2v-2h2v-2l4-3h2v-2l6-4 8-4 21-7 23-6 15-3z" fill="#835B3C"/>
<path transform="translate(804,608)" d="m0 0h14l24 3-1 2 3 1-1 4-16 12-9 10-10 15-9 15-9 19-5 13-9 24-10 32-5 17-4 10-2 2-8-1-8-4-5-2 1-6 10-41 4-16 4-10 3-10 2-3 4-13 4-8 3-7 4-10 8-15 3-7h2l3-9 4-8 3-1 7-1z" fill="#F7A886"/>
<path transform="translate(697,979)" d="m0 0h11v1l-9 1 4 2-3 7-11 21-10 22-7 14-8 19-9 26-10 35-2 17-6 20v25l2 16 1 10-2-4-3-12-3-38v-59l3-39 7-65 2-7 5-3 9-4 14-3z" fill="#F7A886"/>
<path transform="translate(545,598)" d="m0 0h1l-1 8-8 42-6 31-11 54-5 22-7 25-7 23-3 10-8 24-10 24-13 24-8 16-9 14-4 5-5 5-11 13-2 3h-2l-3 6h-2l-2 4-10 8-7 8-10 10-13 17-3 3-4 1-1-3v-51l1-29 3-28 1-5h1l-1 14-2 23-1 32v15l1 8 5-12 10-18 7-12 8-16 9-17 9-20 7-16h2v-2h5l2 3v9l-5 25-3 16-5 22 6-4 12-17 8-16 11-27 10-24 5-13 15-37 4-9 5-13 10-24 4-13 8-36 9-45 5-27 6-27z" fill="#5B3418"/>
<path transform="translate(1393,939)" d="m0 0 2 2 14 36 9 21 10 21 12 20 7 9 2 1 6 11 9 12 9 11 5 5 8 7 5 6 2 1v2l4 2 8 6 4 4 13 8 16 8 11 5 13 4 2 3-2 1h-47l-12-1-12-2-22-5-7-3-18-6-4-2-10-2-16-8-9-5-12-7-16-13-17-17-11-14-7-10-9-19-11-33-3-10v-8l11 1-4 2 3 8 5 10 8 14 14 20 1 3h2l18 22 9 10 7 6v2l4 2 7 7 12 9 12 8 25 15 11 5 3 1h21l32 10 6 1h9l-3-3-17-9-12-9-10-8-12-11-5-6-5-5-11-12-6-10-11-15-7-10-9-16-8-16-8-17-6-15-6-17-6-15z" fill="#5B3418"/>
<path transform="translate(575,889)" d="m0 0h1l-3 61-1 90v14l-5 10-4 6-10 23-5 13-9 23-6 9-5 9-11 15-9 11-8 11h-2l-2 4-12 11-8 7h-2v2l-5 2v2l-8 6-15 11h-2l-1 3-12 7-9 6-10 6-10 5-9 5-7 3-24 8-7 2-3 1-5-1-3-1 10-9 5-5 11-10v3l-5 6-3 3 4-1h2v-2l7-4 26-20 8-6 8-8h2v-2l8-7 12-9 13-5 9-4 6-3 12-8 6-6h2v-2h2l2-4 5-5 6-8h2l2-5 10-15 4-7h2l1-4h2l1-4 9-12 5-8 10-17 6-10 11-20 3-95 2-48 2-20z" fill="#5B3418"/>
<path transform="translate(799,314)" d="m0 0 22 1 25 4 17 5 7 3v2l4 2 6 4v2l5 2 3 3 3 1 1-3 4 9 2 1v7l1 4-3 1-2-9-10-10-11-7-8-4-14-3h-5l3 6 9 5 3 3v2l-30-10-22-5-18-2h-18l-17 2-9 1v2l-10 3-10 2-15 6-17 10-15 10-10 7-10 6-13 10-7 7-8 7-20 20h-2l-2 4h-2l-2 4-8 7-11 12-9 11h-2v2h-2l-2 4-6 8h-2l-2 5h-2v2h-2l-2 4-4 6h-2l-2 5-16 26-11 16-10 13-12 20-13 21-5 7h-2v2h-2v2l-3 1-4 8-1-3 11-21 12-22 5-9h2l2-6 5-8 7-11 10-14 4-5 5-9 8-11 10-13 4-6 6-8 6-7 3-5 4-3h2l2-4 7-9 4-4h2l2-4 22-22h2l1-3 8-7 11-11 18-13 17-11 10-7 15-9 16-9 15-7 20-7 22-6 14-2z" fill="#C99A70"/>
<path transform="translate(1092,612)" d="m0 0h35l7 2-2 5-4 4 10 3 12 6 7 6 3 5 3 11 5 30 8 43 4 29 7 50 6 34 2 10 4 16 2 11 1 1v5l-2-2v-3h-3l-3-7-3-16-9-36-4-15-4-13-6-25-9-33-9-27-12-30-11-23-8-13-11-11-11-8-4-4 1-2-11-1v-1z" fill="#F7A886"/>
<path transform="translate(757,330)" d="m0 0h41l19 3 24 6 22 8 16 9 8 5 4 1v4h2v2l9 1 5-5 11-12 8-7 10-9 5-2-5 5-13 12-10 10-10 13-3 4v4l7-1-1 2-8 1-1 2-5-1-11-8-13-8-4-2v-2l-5-1-17-8-21-7-20-4-15-1h-14l-19 2-19 5-18 8-6 3-10 6h-2v2l-10 5-2 3-5 3-9 8-5 1-1 2-9 5-13 10-16 15-4 2-2 4-4 4h-2v2l-6 4h-3v2h-9l2-4 7-8 11-12 18-18 22-18 38-26 8-3 4-4 10-4h2v-2l17-6 15-4z" fill="#3E1903"/>
<path transform="translate(1227,977)" d="m0 0h7l3 6-1 2-3 3-11 3-28 4-21 6-18 7-17 10-10 9-14 12-5 4-5 5-4 5-9 7-4-2-7-8-6-13-1-4v-15l2-8 4-5 2-2 12-3 13-4 19-5 24-5 9-2 27-3 22-2z" fill="#F7A886"/>
<path transform="translate(609,445)" d="m0 0h3v19l-4 8-20 30-8 14-14 27-9 21-5 13-1 6h-2l-2 9-4 10-4-2v-14l1-17v-13l-10 1-9 2-2-1 1-5 8-17 9-16 8-15 13-19 9-11 12-14 9-3 11-6z" fill="#D8A274"/>
<path transform="translate(1412,422)" d="m0 0 4 2 7 8 16 16 7 8 10 11 8 11 13 16 11 15 12 17 12 19 2 3-1 4-9-7-14-12-6-3h-11l-5 2v6l3 5 3 7 3 6-1 3-7-11-5-5-2-5-1-3h-2l-3-8-8-11-4-6-3-2-2-5-5-5-3-6-4-5-3-7-11-14-3-4 3-12v-20l2-1-2-4z" fill="#D8A274"/>
<path transform="translate(708,978)" d="m0 0h60l31 2 38 4 32 5 29 7 22 7 6-1-2 5 5 6 3 9v13l-4 11-8 12-2 2-7-1-9-11-11-10-8-7-10-9-8-7-15-9-19-8-32-11-1-2 2-1-1-1-32-3-59-1z" fill="#F7A886"/>
<path transform="translate(533,1205)" d="m0 0 6 1 8 9 1 2v17h-2l-1 9-7 30-7 11-2 3v5l9 5-2 17-1 17h-4l-11-8-8-8-8-10-8-15-2-6v-16l4-13 4-6 13-12 9-14 8-16z" fill="#F6A885"/>
<path transform="translate(530,763)" d="m0 0h5l1 1v11l-5 21-10 29-12 29-11 23-10 18-12 21-8 13-10 13h-2v2h-2v2l-8 7-5 5-7 4-4 2-2 4-6 8-5 7h-2l-2 5h-2l-2 4-9 13-5 7-6 11-5 9-6 12-6 18-7 23-4 14-2-2 3-25 4-18 5-15 2-8h2l1-6 8-16 3-7 5-6 1-3 5-5 12-13 9-10 16-15 3-5 6-5 2-4 5-5 7-9 8-12 5-7 3-7 4-5 4-8 1-4 3-3 4-10 1-2h2l2-9h2l1-7h2l1-5 11-30 2-9h2l1-10h2l2-9 7-21z" fill="#C79970"/>
<path transform="translate(1061,517)" d="m0 0h8l12 2 9 4 12 7 14 12 2 4-24 3-14 3-25 6-16 5-22 9-22 8-6 1-2-3 5-10 7-10 6-9h2l2-4 4-4h2l2-4h2v-2l10-7 14-7 10-3z" fill="#5B3418"/>
<path transform="translate(1203,790)" d="m0 0 2 2 3 11 2 4 2 15 5 19 11 31 8 19 10 24 9 20 18 35 8 13 10 21 7 14 3 5 3 7 5 7 5 9v2h2v2h2l5 10 5 13v2h2l6 18 4 9-1 3-1-3h-2l-5-10v-2l-3-1-4-9-3-7-10-17-7-12-10-17-6-13v-3h-2l-3-5-2-4-3-1-5-8v-3h-2l-1-2-4-1-1 1h-5l-2-4-3-3-15-31-10-26-9-32-7-30v-6h-2l-2-11-2-17-5-32z" fill="#825A3B"/>
<path transform="translate(757,505)" d="m0 0h7l14 4 15 8 17 13 10 11v5l-16 12-3 3-4-1-5-4-10-5-13-4-13-2h-36l-9 1 4-8 10-13 10-10 10-6 7-3z" fill="#5B3418"/>
<path transform="translate(574,1270)" d="m0 0h4l3 13 12 60 5 24v5l-6-1-10-6-17-10-10-8-6-8-3-10-1-7v-10l3-15 4-7 16-15z" fill="#F6A885"/>
<path transform="translate(1456,467)" d="m0 0 5 3 2 6h2l3 5 7 6 2 5h2l8 11 9 12 14 22 9 14 6 11 11 20 8 14 6 16 4 6 3 5v3h2l11 23 7 15 12 26 9 22 7 15 11 26 7 15 6 16v4h-6l-16-7-12-8v-2h-2v-2l-4-2-5-5v-2l-3-1-4-5v-2l-3-1-9-13-5-9-12-22-6-10-6-13v-3h-2l-6-13-6-12-7-15-12-23-20-40-8-15 1-2 10 17 8 16 9 19 12 22 12 23 10 19 7 14 7 11 1 3h2l4 5 9 9 5 4 5 5 5 6 2 1v2l4 2 4 4v2l3 1 9 11 7 9 5 4 1-4-5-13-6-13-8-20-5-10-11-26-16-35-10-19-12-22-11-23-10-19-8-17-4-4-14-22-10-14-12-16-13-16-6-8z" fill="#5B3418"/>
<path transform="translate(1440,1273)" d="m0 0 3 1 6 8 9 10 8 13 4 10v12l-4 13-6 9-8 7-11 7-13 9-6 1v-8l7-37 6-31 4-22z" fill="#F6A885"/>
<path transform="translate(514,1189)" d="m0 0 6 2 7 5 1 6-6 7-5 4-8 10-11 14-5 7-5 13-2 10v17l3 12 8 15 9 12 3 2v2l4 2 10 9 14 10 16 12 21 13 11 6 11 7 6 4 4 9 5 20v8l-5 3-9 3h-23l-18-6-11-7-10-9-10-10 1-2 17 17 11 7 12 5 16 3 15-1 10-3 1-2v-8l-7-24v-2l-6-2-11-7-14-8-18-11-13-10-14-10-13-10-10-10-7-9-7-11-5-11-3-10-1-7-1-25-2-7-8 2-2 5-5 10v15l3 14-1 3-3-10-2-10-1-10v-23l5-6 17-13 11-9 5-2v-2l10-8z" fill="#F5A885"/>
<path transform="translate(1021,499)" d="m0 0h16l6 2v2l-7 1-11 2-10 5-7 6-3 19h-2v2l-7 6-8 10-7 11-13 22-7 11-9 9h-4v-16l5-24 6-15 7-12 4-5 6-8 11-12 8-7 13-6z" fill="#5B3418"/>
<path transform="translate(1220,313)" d="m0 0 5 1 16 7 19 10 11 6 10 6 10 2 5 3 12 6 9 6 11 7 19 11 13 11 10 7v2l4 2 10 9 14 11 8 6 6 8v17l-3 5-5-1 1 4-7-6-11-13-8-9-7-8-8-9-16-16-8-7-11-9v-2l-5-2-16-13-4-2v-2l-4-2-10-7-22-14-35-18-13-6z" fill="#835B3C"/>
<path transform="translate(1254,1190)" d="m0 0 6 1 5 3v2l4 2 7 5 4 2v2h2v2h2v2l4 2 9 10 3 5-2 4-1 7 3 1v3l5 4 5 3 1 1 9 1v2l-13 2h-18l-15-2-26-9 1-4h6l-1-5-4-9-6-8-8-7v-2h-3l-1-4-4-2-4-7v-3l8 1 4 5v2l5 2 5 4 7 4v2h2v2h3v2h2v2l5 2 5 3 8 2-5-10-3-5-6-4-9-11-3-5z" fill="#FCCDAE"/>
<path transform="translate(1446,805)" d="m0 0 4 1 8 15 5 10 10 14 12 14 11 12 15 14 11 10 14 11 12 10 18 11 8 6v4l-7 1-16-4-11-7-11-8-8-6-10-8-13-12-7-7-7-8-12-12-4-6-7-10-13-24-5-13v-6z" fill="#C99A71"/>
<path transform="translate(764,565)" d="m0 0 15 1 9 2 1 3-7 14-5 8-5 2-23-1h-8l-15 3-14 5-18 10-7 5-4-1 2-6 7-11 7-8 18-13 15-7 19-5z" fill="#5B3418"/>
<path transform="translate(1429,1143)" d="m0 0 6 2 9 9v2l4 2 8 7 5 5 9 8 5 4 1 6h-2l-2 7-4 8h-2l-3 10-4 10-3 4-5-1-4-4-11-22-8-35-1-7v-13z" fill="#5B3418"/>
<path transform="translate(1514,1209)" d="m0 0 7 1 16 8 16 12 5 7 2 10v25l-4 15-9 25-9 22-11 21-11 17-5 6v-3l7-10 9-15 8-15 6-15 7-20 4-10 4-13 2-13-2-10h-2v-2l-5 1-1 3h-2l-3 9-6 7-4 4-3 19-3 10-4 8-8 11-13 13-10 7-11 7-10 7h-2l-1 3-6 4-8 7-16 9-15 9-5 4-6 26v7l10 3 9 1h14l12-4 10-6 12-8 16-16v3l-16 16-15 10-9 5-14 3h-12l-18-4-2-2v-7l6-25 2-5 15-9 16-10 6-4 13-11 17-12 16-11 15-15 8-13 4-13 2-20 9-6 3-6-1-7-7-10-12-16-7-14z" fill="#F4A784"/>
<path transform="translate(837,551)" d="m0 0 13 1v2l2 1v3l5 2 2 2-2 1-17 2-13 4-11 7-9 8-1 2h-2l-2 4-4 3h-2l-2 4h-2l-1 7-10 15-7 12h-2l-1 5-4 7-14 28-4 10-2 7-3 6-3 11-3 9-6 20-5 21-9 36-2 3 1-15 8-39 8-30 11-33 4-9 5-10 1-8 5-4v-3l2-1-1-2 3-1 1-4 1-1 3-2 1-8h2l2-4 2-7 4-5 7-10 2-3h2l1-7h2v-4h2l1-5 9-11 11-10 12-6z" fill="#825A3B"/>
<path transform="translate(1068,1582)" d="m0 0h5l1 5-7 6-5 3-7 5-23 8-8 1h-24l-20-4-10-4-2-1v-2l-6-2-11-7-2-3v-3h6l6 2 13 2 22 2h21l28-3z" fill="#F7A885"/>
<path transform="translate(1395,1390)" d="m0 0h1l-1 10-3 20-8 32-6 19-3 12-5 13-8 16-11 20-7 10-3 5-9 11-4 6-3 5h-2l-2 5-13 16-3 6-6 5-2 4-2 1-3 6-9 10-5 4-5 5-9 7-3 3h-2l-2 4-5 5h-2l-1 3-8 7-9 9h-2v2l-4 3h-2v2l-8 6-6 7-8 7-10 9-5 4-5 3-19 14-10 8-19 13-9 6-16 8-11 2v2l-20 6-10 2-14 2-6 2-21 2h-33l-31-4-16-4-13-4-1-2 10 2 21 5 22 3h49l24-3 26-6 22-8 16-8 12-8 17-12 16-13 14-10h2v-2l14-11 14-14 8-7 16-15 20-18 13-12 8-7 9-9 12-16 8-9 8-11 9-12 11-15 10-13 20-35 7-17 10-35 10-40z" fill="#744C2E"/>
<path transform="translate(609,445)" d="m0 0h3v19l-4 8-13 19-1-2 4-11-8 2h-2l-10 10-2-1 1-10-7 1-1 4-3 1-1 2h-2l-2 4-4 6-3 4h-2l-2 8-3 4-4 8-6 9-4 9-5 9v2l6-1 1-1 9 1v16l-1 3v11l4 1 2-4h2v-9l3-3 2-8h2l2-8 3-1-3 9-8 21-1 6h-2l-2 9-4 10-4-2v-14l1-17v-13l-10 1-9 2-2-1 1-5 8-17 9-16 8-15 13-19 9-11 12-14 9-3 11-6z" fill="#C99A71"/>
<path transform="translate(576,1145)" d="m0 0h3l2 8 2 13 4 15 1 7v23l-2 6-2 10-6 12-10 16-7 7-1 2-4 1-1-5 3-11 4-24 2-13 4-22 3-23 4-21z" fill="#5B3418"/>
<path transform="translate(755,412)" d="m0 0 9 1-3 2-35 7-12 5-14 7-22 12-12 7h-2v2l-3 2h-3v2l-8 7-7 7-9 13-14 26-5 12v3l19 1 2 1-1 7-6 11-1-4 4-8-13-2-5-1-3-2 1-6 1-4-3 1-4-1 1-5 8-14 3-5h2l2-5 3-5 5-10 7-12-11 11v-3l6-7 5-5 7-4 3-1v-2l7-4 16-10 18-10 12-5h2v-2l14-5 27-4zm-132 63 2 1-5 5 2-5z" fill="#C89970"/>
<path transform="translate(1465,1276)" d="m0 0 11 1h28l14-1 1 1v12l-5 14-9 12-8 7-5 5-7 4-2-3-1-13-4-12-8-13-5-8-1-5z" fill="#F6A885"/>
<path transform="translate(645,565)" d="m0 0 1 2h8l2 1v13l-5 43-6 35-5 23-1 2-4-2-7-8-6-3-6 36-5 28-9 56-5 35-2 19-2 1v-49l3-46 6-59 5-31 1-6h1l-1 13-4 33-5 50-1 28-1 19 1 1 4-25 2-16 2-11 6-40 2-5 1-13 4-15 2-7 2-2 9-3 5-6 2-8 3-7 3-6v-4-8l3-13-1-15-3-16-1-3 1-9z" fill="#C99A71"/>
<path transform="translate(1068,566)" d="m0 0h17l12 3 16 6 17 9 10 7 4 3v3l-25-5-10-1h-9l-11 2-14-3-15-4-21-3-9-2 3-3 18-8 11-3z" fill="#5B3418"/>
<path transform="translate(578,886)" d="m0 0h6l4 3v31l-1 40v107l3 38 4 35 6 31 6 24 7 21 7 16 3 4 2-3-2-13-2-17-2-13-2-26-1-25v-44l3-39 6-63 2-16h1v10l-6 61-2 34v61l1 28 2 19 5 35 4 16 9 25 5 10-1 3-4-1-10-13-8-16-4-9-8-19-9-28-7-29-4-24-3-25-4-48v-99l2-60v-18l-3-2-5-1z" fill="#5B3418"/>
<path transform="translate(1195,323)" d="m0 0 12 3 31 13 14 7 5 2v2l5 2 10 6 5 2v2l4 2 6 4 5 2 5 5 5 2-1 2-5-2-13-9-10-6-6-3-12-7-9-6-14-5v3l12 7 20 12 16 10 15 10 16 12 7 5 4 4v2l4 2 4 3v2l6 3v2l4 2 6 5v2l4 2v2l4 2v2l4 2 19 19 5 4v2l3 1 3 5 3 12h-2l-1 4h-2l-2 7-8 5-15 2-9 2-5 3-1 7 3 21v13l-2 1-9-3-10-5v-2h-11l-6-2 2 7v10l-2 3-6 2-10-1-6-4-4-5h-4l-1-6 16 12 2 1h8l5-3v-8l-9-19-4-5v-3l6 2 11 7 12 9 15 9 5 1-1-13-2-13v-11l3-5 10-4 20-4 3-3 1-3v-9l-5-12-7-11-14-15-15-14-12-11-11-9-13-11-13-10-10-7-19-12-21-13-27-15-17-11z" fill="#C99A71"/>
<path transform="translate(1569,1154)" d="m0 0h8l3 1 2 3 3 20v25l-1 5-6 1-3-1-4-4v-2l-4-2-5-4v-2h-2v-2h-2l-7-8v-2l-3-1-9-11-3-4 1-5 8-3 21-3z" fill="#5B3418"/>
<path transform="translate(606,655)" d="m0 0h1l-1 9-2 10-6 11-9 26-11 33-15 56-6 27-9 48-7 48-6 37-8 40-10 38-13 37-6 14-5 13-8 16-7 11-14 21-10 14-12 14-31 31-8 7-11 11-7 8-6 8-8 6 2-4 5-5 10-12h2l2-4 10-10 5-6 8-7 5-6 8-7 9-9 11-14 9-12 7-11 8-11 8-13 8-16 7-15 8-20 9-27 5-16 9-34 6-32 7-45 3-25 14-71 9-38 10-38 11-33 6-15 7-18 5-13z" fill="#5B3418"/>
<path transform="translate(1552,1252)" d="m0 0h2v2h2l3 10-3 17-6 18-5 12-7 20-10 19-5 9-1-3 8-14 2-6 2-1 2-7-1-2h3l-1-6 3-1-1-5 1-4 1-7h2 1l-1-5h2v-8l2-7-2-6-2-2v-3l10-3v2h2l-2-4-3-1-5 3-8 7-2 5-2 13-7 22-4 6h-2l-2 4-5 6h-2l-1 3-7 5-3 3-11 8-10 6-1 2h-4v2l-8 6-7 5-1 2-8 4-9 6-4 3-7 2-8 4-3 1-2 10-3 13v7h2l1-1 9 2-2 1v2h22l12-4 7-5 8-4 5-4h2v-2l5-4 2 1-9 9-14 9-12 6-7 2h-14l-13-2-7-3v-7l6-26 6-5 34-20 7-7 4-2 4-4 11-7 10-7 6-4 10-9 7-7 8-12 4-10 3-15 1-9 5-5 6-8 3-7 3-3z" fill="#FDCEAF"/>
<path transform="translate(561,1117)" d="m0 0 3 1v16l-3 23-3 22-2 15-2 6-6-3v-2l-5-2-6-7-3-2v-2l-5-2-2-3 2-9 4-4 1-3h2l2-5 10-19 3-6h2l2-5 4-7h2z" fill="#5B3418"/>
<path transform="translate(772,343)" d="m0 0h14l21 2 21 5 16 6 16 8 4 1 3 3v2l-4-1-20-9-18-6-15-3-8-1h-31l-17 2-21 7-16 8-18 11-12 9-3 3h-3l-2 4-9 10-4 4h-2l-1 4-4 1-1-1v-7l6-9 14-14 5-4 3-1 2-3 8-4h2v-2l12-7 14-7 16-6 20-4z" fill="#F9ECE1"/>
<path transform="translate(952,1068)" d="m0 0 4 1 8 16 6 15 5 16 2 9 1 10-1 31-2 71-3 9-4 4h-3l1-11 2-14v-96l-4-16-8-26-5-11v-7z" fill="#825A3B"/>
<path transform="translate(1488,1198)" d="m0 0h3l4 10 7 15 10 24 1 6-1 1h-9l-14-3-13-5-6-4v-8l6-18 7-13z" fill="#F4A784"/>
<path transform="translate(1340,1106)" d="m0 0 3 3 5 8 4 8v2h2l2 7h2l5 10v2h2l3 6 7 12 6 11 9 14 9 12 3 3v2l3 1 5 5v2l4 2 12 11 28 21 11 7 10 5v3l-11-2-11-5-12-6-11-8-14-11-13-12-7-7-4-3v-2h-2v-2h-2l-7-9-6-10-2-6v-7l-4-9-7-14-2-3-2-6-10-17-8-16z" fill="#835B3C"/>
<path transform="translate(1393,547)" d="m0 0 6 2 13 10 17 12 5 2 2-10 5-2 8 1 5 1 2-1-1-12 3 4 12 26 1 4-4-1-5-4-4-5-7-6-4-1h-7l-3 4-1 10-2 1-11-9-13-10-10-8h-2l7 9v2h2l11 17 11 20 9 19v3l-4-2-11-13-9-11-2-1v-2l-4-2-7-6-7-4-5 1-8 10-6 7-11 22-4-1-1-4-9-3h-8l-8 3-2 9h-1v-7l2-4 11-4 8 1 11 5 11-22 5-5 2-3h2l3-6h2l1-3 7-1 4 3 10 3 1-5-2-1-3-7-6-9-9-12v-3z" fill="#C89970"/>
<path transform="translate(1376,1109)" d="m0 0 7 4v2l5 2 9 5v2l5 1 8 4 1 4-8 20-6 16-2 2h-3l-9-11-6-11-1-4-1-35z" fill="#5B3418"/>
<path transform="translate(527,1196)" d="m0 0 3 2v5l-4 7-7 4-6 9-7 7-1 3-5 5-7 12-3 11-1 16 1 10 7 14v2l2 1 1 3 1-1-4-10-4-11-1-4v-13l3-14h2l2-5 9-8 5-5 7-10 10-18 3-6 5 2 8 6 3 4v12h-1l-1-9-8-10-6-2-3 9-8 14-8 11-7 7-6 5-5 12-1 5v16l5 12 7 12 14 15 11 8h2l2-25h1v12l-1 17-5-1-10-6v-2l-6-3 4 5v2h3l2 4 7 6v2l4 2 7 5v2l4 2 11 7 9 6 7 4 10 6 2 3-5-2-18-10-17-12-12-9-11-8-10-9-7-6-11-15-7-15-2-9v-17l4-16 5-10 11-14 12-15h2l1-3 7-7z" fill="#825A3B"/>
<path transform="translate(1033,263)" d="m0 0h23l26 2 28 4 19 4 25 7 41 13 13 5-4 1-18-6-12-2-18-4-7-3-9-2-5-2-13-4-12-2-5-2-26-1h-58l-17 2-19 6-7 2-17 6-5 1 5-4 4-3 11-6 16-6 19-4z" fill="#D9A375"/>
<path transform="translate(634,386)" d="m0 0 2 1-3 5-8 7-7 7-5 6h-2v2h-2v2h-2l-1 5-3 1-2 3-2-1-1 5-3-1 1 3-2 4-2 1-1 3h-3l-1 4-5 5-7 8-5 5-9 11-9 9-10 15-7 11-5 9h-2l-2 5-8 13h-2v2h-2l-2 6-5 5-14 22-4 7-4 5-2 5-5 3 2-5 6-12 8-13 1-3h2l2-6 5-8 7-11 10-14 4-5 5-9 8-11 10-13 4-6 6-8 6-7 3-5 4-3h2l2-4 7-9 4-4h2l2-4 22-22h2l1-3 8-7z" fill="#D8A274"/>
<path transform="translate(678,496)" d="m0 0 1 4-10 15-9 19-6 13-7 18h-2l-3 10-6 17-3 9-6 16-2 10-3 6-5 1-1-2 9-33 2-9 2-12 6-15 3-8 8-15 3-6h2l1-4 5-8h2l1-4 1-3h2l2-5 9-11z" fill="#F5D0B1"/>
<path transform="translate(624,477)" d="m0 0h2l-1 5-10 18-6 9-8 14-2 5-9 17-6 14-5 12-10 28h-2l-2 5h-3l-1-4 9-29 12-29 4-10 10-21h2l2-6 3-5h2l2-4 3-5h2l1-4 3-1 1-4 6-4z" fill="#F8C9A9"/>
<path transform="translate(1468,1309)" d="m0 0 2 2 2 11-3 15-3 6-2 7 5-5 8-4 2-9 1-19h1l1 13v7l3 1 5-2v-2l14-10 2-3h2l1 3-3 1-1 4-6 5-1 2h-2v2l-7 5h-3l-1 3h-2v2l-10 7-8 6h-2v2l-8 7-8 6-13 8-5 5-10 6h-2l-4 18h-1v-9l3-10 8-6 1-6-5-1v-8l3-14 2-1-1 11-1 8 8-3 14-10 13-9 5-6 5-10 2-8v-12z" fill="#5C3519"/>
<path transform="translate(1321,1565)" d="m0 0v3l-13 17-8 10-9 11-7 9-13 13-8 7-10 9-14 13-8 7-15 14-12 11-8 8-7 5-3-1 2-4h2l2-4 5-5 2-3h2l2-4h2l2-6 10-8 11-11h2v-2l11-9 6-5 5-5 10-8 4-1 2-4 6-5 4-4 4-7 7-6 3-4h2l1-4 7-6h3l8-11z" fill="#DBA376"/>
<path transform="translate(474,1242)" d="m0 0 4 2 1 6 1 25 3 14 4 9 5 10 7 10 12 13 11 9 36 26 18 10 18 11 7 4 4 11 4 15v8l-2 3-10 3-15 1-16-3-10-4 4-1 19 5h10l13-2 5-2-3-17-5-14v-2l-4-1-12-6-5-3v-2l-4-1-7-3v-2l-5-2-4-2v-2l-4-1-7-4-1-3h-3v-2l-5-2-3-2v-2l-5-2-3-2v-2l-6-2v-2l-8-4v-2h-2v-2l-4-2-5-5v-2l-3-1-10-15-3-5v-2l-2-1v-3l-2-1-3-8-1-4 1-3-2-1 1-3h-2l-3-17-2-4-5 1-3 6-1 9 3 14 2 10 1 6-3-4-5-24v-15l3-6 5-9z" fill="#FCCDAE"/>
<path transform="translate(530,763)" d="m0 0h5l1 1v11l-5 21-10 29-12 29-11 23-10 18-6 10h-2l2-6 8-13 8-16 5-11 4-10 5-17 2-5 1-4v-10l-4 8-1-3 2-5 2-9h2l1-10h2l2-9 7-21z" fill="#C89970"/>
<path transform="translate(729,336)" d="m0 0 4 1-11 4h-2v2l-8 4h-4l-1 3-7 4-7 3-32 22-8 6-13 11-12 11-17 17-7 8-5 7 8 1v-2l7-4h2v-2l7-6 14-14 8-7 12-9 6-4h3l1-3 4 1-7 7-5 8-4-1-4 2-2 3h-2l-1 3-6 5-2-1v2l-3 1-5 6-8 7-7 6-5 5-8 6-5 5-9 5-5-1-2-4 10-11 3-6 8-8 7-6 29-29 8-7 11-9 11-7 9-6 23-15 12-7z" fill="#5D3619"/>
<path transform="translate(1319,1570)" d="m0 0v3l-16 21-8 9-8 11-15 15-8 7-12 11-8 8-8 7-12 11-13 12-8 8-8 7-13 10-16 12-6 7-30 21-12 7-9 4-11 2v2l-20 6-10 2-14 2-6 2-21 2h-33l-31-4-16-4-13-4-1-2 10 2 21 5 22 3h49l24-3 26-6 22-8 16-8 12-8 17-12 16-13 14-10h2v-2l14-11 14-14 8-7 16-15 20-18 13-12 8-7 9-9 12-16 8-9 8-11z" fill="#7C5436"/>
<path transform="translate(1023,243)" d="m0 0h33l1 1 31 3 9 2 13 2 6 2 10 2 12 3 5 2 13 3 9 4 24 8 11 4v2l8 2 10 5 10 2 2 3 6 3-3 1-28-12-25-10-23-8-30-9-8-1v-2l-10-1-26-4-21-2h-41l-25 3-17 5-17 9-13 10-10 9-5 5-8 7-10 14-4-2 5-8 2-3h2l1-3 6-5 5-6 5-3 3-5 6-3 2-3 7-4 5-4h3v-2l8-4 7-3 8-3 24-4z" fill="#623B1E"/>
<path transform="translate(513,1187)" d="m0 0 7 1 5 5 6 4 5 4 5 3-1 2-5-3h-2l-8 16-10 16-5 6-10 8-3 5h-2l-1 8-1 6v13l4 13 4 8 1 5h-2v-2l-2-1-4-6-5-11-1-12 1-14 4-13 6-10 4-5h2l1-4 8-8 5-8 4-3h3l2-6 1-1v-5l-13-8-4 2-10 11-5 4-8 4-11 9h-2v2l-11 8-7 6-1 2v35h-1l-1-7v-29l6-7 4-3h2v-2l8-6 10-8 10-7 15-15z" fill="#5B3418"/>
<path transform="translate(628,1414)" d="m0 0h1l7 29 7 21 8 21 7 16 8 15 14 22 12 16 12 17 6 9 9 13 9 10 7 8 10 11 8 7 10 9 7 7 8 7 12 12 13 12 12 11 16 13 17 13 11 8-3 1-7-5v-2l-5-2-11-8v-2l-4-1-2-1v-2l-4-2-8-7-6-4-5-5v-2l-5-2v-2l-4-2-7-7-2-4-11-9-4-5-8-6-7-8-5-3-2-4-4-1-7-6-7-8-10-11-2-5h-2l-9-13-3-7-5-5-9-12-13-18-6-8-13-22-7-14-4-10-2-9-1-5h-2l-8-20-3-17-4-16z" fill="#70492B"/>
<path transform="translate(1507,1161)" d="m0 0h9l7 6 9 11 6 7 3 1 7 9 2 4 3 1 7 8 4 6v3l-3 1-16-8-29-29-8-10-2-9z" fill="#633C1F"/>
<path transform="translate(949,1584)" d="m0 0h6l17 5 1 1 7 1 33 1 20-1 24-4 10-3h5l-1 4-5 3-13 5-20 4-15 1h-15l-21-2-15-3v-2l-6-1-11-5z" fill="#49230C"/>
<path transform="translate(715,1200)" d="m0 0 6 2 4 4v2l4 1 14 14 11 8 8 6 8 5 12-1 2 2-4 3-10 3-14 1-12-1-2-2 1-4-5-8-4-5v-2h-2l-6-9v-2h-2v-2l-4-2-8-8 1-4z" fill="#FDCEAF"/>
<path transform="translate(1352,727)" d="m0 0 2 4 10 34 8 20 6 13 8 18 4 7 3 6-2 9-4 1-5-3v3h-2l1 2 2 13 3 11-1 4-7-23-5-24-4-21-4-15-7-32-6-22z" fill="#5B3418"/>
<path transform="translate(1538,1265)" d="m0 0v3l-8 5-3 25-5 12-8 11-15 15-24 16-10 8-11 9-9 6-10 6-2-1 10-7 10-6 8-8h2v-2l11-8 7-5h2v-2l3-3 7-4 3-1v-2h2l1-3h2l2-4 2-1 1-3 2-2-1-1-4 4-11 8h-2v2l-6 3-3-2v-14l-3-14h-2l-6-10v-4l-4-2-2-4v-6l2 3 8 13 6 10 3 10 1 13 2 2 8-6h2l2-4 8-7 8-12 4-12v-12l-14 1h-28l-11-2 4-1 21 1 17-1h12l2 4-1 13-6 16-4 6v2h2l4-4 1-4h2l1-4 4-11 3-20 6-5z" fill="#835B3C"/>
<path transform="translate(494,1207)" d="m0 0 1 2-10 7-12 10-13 10-2 3v23l2 16 3 12 8 22 12 25 12 22 8 12 13 17 7 9 11 12 8 8 14 9 18 6h23l12-4 1-1v-8l-6-23v-4l3 1 4 14 3 15-1 7-8 4-20 4-18-2-20-10v-2l-6-2v-2l-4-2-13-13-8-10v-2h-2l-8-12-10-13-5-9-11-19-4-8-6-13-9-25-4-13-1-17v-25l5-6 13-10h2v-2l13-10z" fill="#684023"/>
<path transform="translate(1210,309)" d="m0 0 5 1 5 2v2l9 3 28 14 16 9 17 11 11 8 3 2v2l5 2 15 12 5 3 5 5 12 11 8 7 12 12 11 12 11 13 9 10 7 8 7 6 10 13 12 16-1 2-5-5-6-7-9-11-3-4v-2l-4-2-4-4v-2h-2v-2h-2v-2h-2l-6-8v-2h-2l-7-8-1-3h-2l-7-8-14-14v-2l-4-2-7-7-8-7-3-2v-2l-4-2-12-10-16-12-10-7v-2l-5-2v-2l-5-2-11-8-19-11-16-8-17-8-5-2v-2z" fill="#5C3519"/>
<path transform="translate(1071,1579)" d="m0 0 5 2v6l-7 8h-2v2h-2v2l-11 7-10 4-7 2-4 1-20 1h-10l-17-3-16-5-9-6-3-3v-2l-3-1 2-1 11 6v2l15 5 17 3h27l17-5 12-5 6-4 10-7 1-5-8 1-20 4-28 3h-21l-22-2-17-3-8-2-1 3v-5h7l16 4 16 1h31l23-2 24-4z" fill="#FDCEAF"/>
<path transform="translate(1148,423)" d="m0 0 5 1 5 3 7 3 5 5 10 8 5 3 6 7 10 8 7 7 10 13 6 7v2l-3-1-1 2h2l4 7 2 4h2l2 5h2l3 5 4 8 2 5-4-4-11-16-9-12-10-13-13-14-11-9-9-6-12-10-2-1v-2l-4-2-9-9z" fill="#C7986F"/>
<path transform="translate(576,1451)" d="m0 0 8 1 3 5 5 15 7 34 1 11v32l-2 16-2 2v-27l-2-18-4-20-4-15-10-30z" fill="#C99A71"/>
<path transform="translate(630,388)" d="m0 0 2 1-12 12h-2l-1 3-8 7-20 20-1 2h-2l-2 4h-2l-2 4-7 9-4 3h-2l-2 5-9 10-4 6-7 10-6 8-9 13-6 9-12 17-7 11-5 8-3 6h-2l-1 4-12 21-5 10-2 1 2-6 16-31 8-14 7-11 10-14 7-10 4-7 18-27 10-13 44-44 8-7 10-10 8-7z" fill="#FDD3B5"/>
<path transform="translate(1540,1252)" d="m0 0 4 2 1 5-3 7-5 6-4 4-3 19-3 10-4 8-8 11-13 13-10 7-11 7-10 7h-2l-1 3-6 4-8 7-16 9-15 9-5 4-6 26v7l10 3 9 1h14l12-4 10-6 12-8 16-16v3l-16 16-15 10-9 5-14 3h-12l-18-4-2-2v-7l6-25 2-5 15-9 16-10 6-4 13-11 17-12 16-11 15-15 8-13 4-13 2-20 9-6 3-6z" fill="#CE9D72"/>
<path transform="translate(1025,261)" d="m0 0h37l29 3 28 5 25 6 50 16 20 8 29 14 13 7-2 1-26-13-20-9-28-10-36-11-18-5-28-5-24-3-18-1h-23l-22 2-22 5-13 5-11 6-11 7-10 4-5 3-2-1 11-8 15-9 16-7 16-5 7-2z" fill="#FDD3B5"/>
<path transform="translate(484,1254)" d="m0 0 1 3-2 5v5l3-10h1l-1 10v17l3 12 8 15 9 12 3 2v2l4 2 10 9 14 10 16 12 21 13 11 6 11 7 6 4 4 9 5 20v8l-5 3-9 3h-23l-18-6-11-7-10-9-10-10 1-2 17 17 11 7 12 5 16 3 15-1 10-3 1-2v-8l-7-24v-2l-6-2-11-7-14-8-18-11-13-10-14-10-13-10-10-10-7-9-7-11-5-11-2-6v-25z" fill="#CF9D72"/>
<path transform="translate(514,812)" d="m0 0 3 2h-2l1 5v7l-3 4-2 9-5 16-7 15-10 19-11 19-3 1-1-5 7-14 3-7h2v-7l4-10 1-2h2l2-9h2l1-7h2l1-5 8-22h2z" fill="#D5A073"/>
<path transform="translate(1463,478)" d="m0 0 5 5 12 15 8 11 12 17 12 19 2 3-1 4-9-7-14-12-6-3h-11l-5 2v6l3 5 3 7 3 6-1 3-7-11-5-5-2-5-1-3h-2l-1-6 4 2 5-5 10-4 14 3-2-1-1-7-2-2-2-8h-2l-9-14-10-13z" fill="#C79970"/>
<path transform="translate(816,642)" d="m0 0v3l-7 11-17 34-2 6-11 27-10 30-3 12-5 18-4 14-2 5h-2v2l-3 1-4-4-4-5-5-3v-2l-4 2-2 4 1-12 2-5 5 1 11 5h5l4-9 4-11 6-21 10-30 6-16 5-12 10-21 14-22z" fill="#FBCBAC"/>
<path transform="translate(1487,1195)" d="m0 0h3l3 3v5l7 2 4 2 5 9 5 17v9l3 9v5l-1 1h-15l-13-4v-2l-12-2-8-5-1-7 5-17 2-5h2v-5l7-11zm1 3-7 8-7 15-4 13v8l8 5 14 5 11 2h9l1-3-5-14-11-25-5-11-1-3z" fill="#5C3519"/>
<path transform="translate(795,500)" d="m0 0 9 3 17 8 17 12 9 9 3 5-1 5h-10l-6-4-6-7v-2h-2l-7-8-11-9-15-9v-2z" fill="#5B3418"/>
<path transform="translate(1304,1111)" d="m0 0 1 2h2l4 7 1 3h2l1 4h2v3h2l2 6h2v3h2l6 10 2 5h2v3h2l3 5v2h2l5 7 3 5 3 4 1 9-2 2v-2l-4-1-4-5-6-11-7-11-9-12-13-20-6-8-3-6v-3z" fill="#F7C7A7"/>
<path transform="translate(399 1e3)" d="m0 0 1 2-5 7-6 11-5 9-6 12-6 18-7 23-4 14-2-2 3-25 4-18 5-15 2-8h2l1-6 8-16 1 2-2 4v5l8-6 6-9z" fill="#C89970"/>
<path transform="translate(610,595)" d="m0 0 1 3-16 52-5 13-4-2-4-13-16-4-5 1-12 34-4 6h-2v-12l5-29 1-5h1v8l-2 13-1 4v10l7-18 3-9 3-6 2-2h9l18 5 4-1 3-10 3-7 2-5 3-11 4-11z" fill="#C99A71"/>
<path transform="translate(575,1450)" d="m0 0h9l5 5 7 23 5 26 2 20v21l-3 22-5 13h-2l1-15v-34l-2-12-6-30h-2l-9-27-1-11zm1 1 1 9 7 21 4 13 4 16 3 17 1 13v27l2-2 2-16v-32l-2-17-7-31-5-15-2-2z" fill="#835B3C"/>
<path transform="translate(1052,460)" d="m0 0h10l21 2 22 5v3l5 4 4 4 7 4 5 6 3 3-5-2-16-8-25-9-19-5-16-3v-2z" fill="#C7986F"/>
<path transform="translate(1078,302)" d="m0 0h26l25 2 33 5 28 8 19 7 1 2-11-3-30-9-26-5-22-3-16-1h-33l-28 3-29 7-25 9-21 9-10 6-14 10-11 9-5 5-2-1 9-9 11-9 14-10 25-12 21-7 21-6 18-4 17-2z" fill="#5B3418"/>
<path transform="translate(1081,282)" d="m0 0h13l35 5 4 1 15 1 14 3v1h-13l-29-4h-12l-6 1-40 2-17 2-26 6-14 4-4-1 22-7 16-4 17-3 15-4 5-1z" fill="#5D361A"/>
<path transform="translate(466,574)" d="m0 0 2 1-8 19-9 25-5 13-1 3h-2l-1 6-8 23-2 7-15 49-10 35h-1l1-15 1-5 2-7 3-9-1-5 3-1v-6h2l-1-5 3-3 3-5-1-5 3-5 3-6 1-6h2l1-12 4-13 2-2 2-9 5-11 3-11h2l1-5 1-4h2l3-9 5-11 4-9z" fill="#643C20"/>
<path transform="translate(1509,1204)" d="m0 0 10 2 2 2-10-2 2 9 9 17 10 13 9 9 1 7-2 4-10 6-2 2-4 24-5 11h-2l-1 5-4 4-3-1 2-5 5-10 3-9 1-8h1l1 7 2-14 4-8 7-4 3-3v-6l-1-2-4 1-2 2-7-1-4-3-1-3v-7l1-3 3-1-6-10-8-16-1-8z" fill="#5E371B"/>
<path transform="translate(753,396)" d="m0 0h13l19 1 15 3 11 2 27 7 19 7 2 2-6-1-16-6-25-6-17-3-17-2h-32l-25 4-15 4-19 7-15 7-14 8-20 16-12 11h-2l-1 3-7 6-3 3v-3l5-5 8-9h2v-2h2v-2h2l2-4 10-7 17-12 14-8 16-7 15-5 20-5z" fill="#5B3418"/>
<path transform="translate(950,1069)" d="m0 0h1l2 9 6 15 9 30 1 6v97l-4 24 4-1v2l-4 1-2-2v-22l2-59 1-14v-27l-5-19-7-23-6-12 1-4z" fill="#E0A379"/>
<path transform="translate(742,1194)" d="m0 0 6 1v2h2v3l5 2v2l4 2 5 4v2l4 1v2l5 2 7 8 5 6-1 5-3 3-5-2-1-3h-2v-2l-4-2-7-9-2-1-1-3-3-2v-2l-4-1v-2l-4-2-5-6v-2h-2l-1-4z" fill="#FDCEAF"/>
<path transform="translate(1528,1355)" d="m0 0 1 3-7 10-5 8h-2l-2 5-8 11-3 3-1 3h-2l-1 5-4 5-8 7-9 7-16 8-10 4-14 3h-9l-12-3-6-1-4-3 2-13 2-8h2l-1 8-1 4v7l8 3 11 2h12l14-3 17-10 10-8 13-13 14-19 10-14 5-8z" fill="#6A4326"/>
<path transform="translate(1179,1072)" d="m0 0h8l6 3 4 5v8l-7 8h-11l-6-5-1-3v-10l4-4z" fill="#FCF8F4"/>
<path transform="translate(863,310)" d="m0 0 6 1 9 6 6 7 6 10 1 9-4-1-7-5v-2l-4-2-6-4v-2l-10-3-19-5-20-3-22-1-27 2-9 1 3-2 20-3h32l28 4 20 5 10 1-2-5-11-6z" fill="#F6C7A7"/>
<path transform="translate(683,565)" d="m0 0 1 3-12 37-6 24-4 24-4 41-5 92-3 42-2 19h-1v-11l3-38 2-49 1-26 4-53 4-28 6-27 7-25z" fill="#5B3418"/>
<path transform="translate(1333,1554)" d="m0 0v3l-7 10-1 2h-2l-2 5-13 16-3 6-6 5-2 4-2 1-3 6-9 10-5 4-5 5-9 7-3 3h-2l-2 4-5 5h-2l-1 3-8 7-9 9h-2v2l-4 3h-2v2l-8 6-6 7-8 7-10 9-5 4-5 3-16 12-2-1 12-10 14-10 11-10 8-7 10-10 8-7 15-14 8-7 10-10 8-7 12-11 8-8 8-11 11-13 14-19 10-13z" fill="#5B3418"/>
<path transform="translate(785,612)" d="m0 0v3l-7 12-6 11-8 15-10 22-7 19-9 24-10 38-9 40-4 24-3 2-1-5 3-25 2-12h1v11l11-44 7-27 4-14 3-7 2-6 2-5 2-7 4-10 3-6 8-17 6-11 3-6h2l2-6 6-9z" fill="#5B3418"/>
<path transform="translate(775,1194)" d="m0 0 6 1v2h2l7 9v2h2v2h2v2l4 2 10 9 1 6-3 6h-2v2l-6 4-6 2h-5l1-4 7-5 3-1 1-3-2-6-4-2-2-3v-3l-3-1-7-8-1-3-3-1-4-6v-2z" fill="#FDCEAF"/>
<path transform="translate(769,1072)" d="m0 0h9l6 4 3 4-1 8-5 6-3 1h-10l-5-5-1-10 4-6z" fill="#FCF9F5"/>
<path transform="translate(1195,323)" d="m0 0 12 3 31 13 14 7 5 2v2l5 2 10 6 5 2v2l4 2 6 4 5 2 5 5 5 2-1 2-5-2-13-9-10-6-6-3-12-7-9-6-14-5v3l12 7 2 3-5-2-27-15-17-11z" fill="#C7986F"/>
<path transform="translate(959,1343)" d="m0 0h8l12 6 8 7 2 4v4l-6 1-10-6-5-2h-12l-6-3-2-5 8-5z" fill="#431E08"/>
<path transform="translate(685,1018)" d="m0 0 1 3-9 20-3 7-5 11-9 24-6 21-3 11-3 8-1 13v4h-2v9l-3 16-3 15-1 20h-1l-1-11v-25l6-21 2-16 8-28 12-36 9-21 8-16z" fill="#FDCEAF"/>
<path transform="translate(1290,979)" d="m0 0h9l3 4 3 13 2 4 1 7 2 4 4 19-3-3-11-18-9-17-4-11z" fill="#ECA17F"/>
<path transform="translate(628,1414)" d="m0 0h1l7 29 7 21 8 21 7 16 8 15 14 22 12 16 12 17-1 4-10-13-12-17-9-12-13-22-7-14-4-10-2-9-1-5h-2l-8-20-3-17-4-16z" fill="#70482A"/>
<path transform="translate(416,1207)" d="m0 0 4 1 1 3-4 5h-2v2l-6 5-7 8-11 9-8 7-9 6-3-1 9-11 11-11 3-4h2l2-4 9-9z" fill="#C99A71"/>
<path transform="translate(1509,1163)" d="m0 0h7l7 6 9 11 10 13 9 12v2l-5-2-8-7-12-11-10-10-7-10-1-3z" fill="#C99A71"/>
<path transform="translate(1303,350)" d="m0 0 8 4 19 12 20 12 13 10 11 9 10 9 11 9 18 14 1 5v16l-3 9 1 4 13 17 2 5-5-5-10-13-9-11 1-2 5 1 2-4v-17l-6-8-13-10-16-13-6-5-4-4-13-10-11-8-14-8-16-10-9-6z" fill="#CA9A71"/>
<path transform="translate(1052,1343)" d="m0 0h9l7 3 1 4-4 4h-2v2h-9l-12 2-2 4-4 3-5-1 1-6 6-7 8-6z" fill="#452009"/>
<path transform="translate(830,550)" d="m0 0h15l16 3 14 6 3 2v2l5 2 6 5v1h-6l-13-4-14-2h-16v-1l17-2-3-3-2-1v-2l-2-1v-3h-13l-9 1-13 7-11 10v-3l8-8 11-7z" fill="#5B3418"/>
<path transform="translate(422,965)" d="m0 0v3l-8 11-8 12-8 13-7 11-8 6-1-3 1-5 3-9 2-4 4-4 1-3 8-6 9-10 7-7z" fill="#D6A173"/>
<path transform="translate(1298,514)" d="m0 0 6 2 11 7 12 9 15 9 5 1 2-1-1 4-8-2-12-6v-2h-11l-6-2 2 7v10l-2 3-6 2-10-1-6-4-4-5h-4l-1-6 16 12 2 1h8l5-3v-8l-9-19-4-5z" fill="#C99A71"/>
<path transform="translate(634,565)" d="m0 0 1 4-2 9h-2v8l4-1v-2l4-3-2 9-3 7-3 10-4 11-2 10-3 6-5 1-1-2 9-33 2-9 2-12z" fill="#FACBAB"/>
<path transform="translate(1663,990)" d="m0 0h6v5l-11 8-11 6h-7l-2-13 2-4z" fill="#5B3418"/>
<path transform="translate(1291,1192)" d="m0 0 6 2 12 12 11 9 2 4-5 5-7-2-5-4-5-5-1-3h-2l-3-6-4-7z" fill="#FDCEAF"/>
<path transform="translate(1319,1570)" d="m0 0v3l-16 21-8 9-8 11-15 15-8 7-12 11-8 8-8 7-12 11-13 12-8 8-8 7-13 10-16 12-9 7-2-1 8-7 12-9 7-5h2v-2l14-11 14-14 8-7 16-15 20-18 13-12 8-7 9-9 12-16 8-9 8-11z" fill="#835B3C"/>
<path transform="translate(1321,1565)" d="m0 0v3l-13 17-8 10-9 11-7 9-13 13-8 7-10 9-14 13-8 7-15 14-12 11-8 8-7 5-1-2 8-7 4-2 1-3 6-5 6-7 6-5 5-5 12-11 8-7 10-9 12-11 8-7h2v-2l5-5 6-7 5-7 5-5 10-12 10-13z" fill="#C99A71"/>
<path transform="translate(494,1207)" d="m0 0 1 2-10 7-12 10-13 10-2 3v23l2 16 3 12 8 22 12 25 12 22 3 4v2l-4-2-10-17-6-11-6-13-5-12-10-30-1-17v-25l5-6 13-10h2v-2l13-10z" fill="#6A4225"/>
<path transform="translate(1071,246)" d="m0 0 17 1 9 2 13 2 6 2 10 2 12 3 5 2 13 3 9 4 24 8 11 4v2l8 2 10 5 10 2 2 3 6 3-3 1-28-12-25-10-23-8-30-9-8-1v-2l-10-1-26-4-21-2v-1z" fill="#653D21"/>
<path transform="translate(514,1189)" d="m0 0 6 2 7 5 1 6-6 7-5 4-8 10-5 6v-3-1l-2-3 3-3 5-11 4-4h2v-2h4l1-5-3 1h-3l-5 4-2-1 7-8-5 3-6 7-2-1z" fill="#D9A275"/>
<path transform="translate(838,578)" d="m0 0h21l7 3-2 4-4 1-7 1-9 2-9 1-8-4-2-4 9-3z" fill="#5B3418"/>
<path transform="translate(1038,377)" d="m0 0h27l29 4 19 5 8 3-4 1-17-5-16-3-21-2h-19l-23 2-20 4-16 5-17 7-11 7-9 7-5 5 1 5-4-3 2-4 10-10 13-8 18-8 15-5 18-4z" fill="#5B3418"/>
<path transform="translate(875,507)" d="m0 0 2 2 4 14 3 19-1 6-7-3-9-17-9-9-6-5h3l13 10 5-1 1-2h2v-7z" fill="#5B3418"/>
<path transform="translate(1047,391)" d="m0 0h14l20 2 20 4 21 7 19 9 8 5 5 5-6-2-13-8-18-8-24-7-18-3-10-1h-21l-26 3-18 4-20 6-5 2-3-1 15-6 22-6 24-4z" fill="#5B3418"/>
<path transform="translate(803,345)" d="m0 0 10 1 21 6 21 9 5 3 4 1 3 3v2l-4-1-20-9-18-6-15-3-8-1h-38v-2l4-1 35-1z" fill="#E9C2A2"/>
<path transform="translate(1025,261)" d="m0 0h37l10 1v1h-42l-2 1-17 2-22 5-13 5-11 6-11 7-10 4-5 3-2-1 11-8 15-9 16-7 16-5 7-2z" fill="#FDD0B2"/>
<path transform="translate(544,660)" d="m0 0h1l-1 13h-2v22l-4 20-9 40-5 18-2 12-3 9h-1v-7l4-15 7-35 7-31 2-10 2-19 2-10z" fill="#5C3519"/>
<path transform="translate(729,336)" d="m0 0 4 1-11 4h-2v2l-8 4h-4l-1 3-7 4-7 3-32 22-8 6-13 11-12 11-17 17-7 8-8 7h-2v2l-2-1 7-8 6-5 5-6 8-7 20-20 8-7 11-9 11-7 9-6 23-15 12-7z" fill="#835B3C"/>
<path transform="translate(576,1266)" d="m0 0 4 1 3 12 5 27 3 22v4h2l3 14 1 10 2 10v8l-7-1-9-6 2-1 9 5 4 1-11-53-9-47v-2l-5 2-13 12-8 7-1-3 5-5 3-1 7-8 4-4h3l1-3z" fill="#774F31"/>
<path transform="translate(1164,435)" d="m0 0 5 1 8 4 4 4 4 2 6 7 10 8 7 7 4 6 2 5 5 5v2l-4-2-4-5-20-20-13-10-9-7z" fill="#D8A478"/>
<path transform="translate(1428,849)" d="m0 0h2l8 14 5 10 7 11 4 8-1 2-10-11-6-7-7-6-4-6v-2l-2-1 2-3v-6z" fill="#C99A71"/>
<path transform="translate(1207,1206)" d="m0 0 5 2 9 6 5 5 9 7 1 3 5 4 1 5h-2v2h-5l-3-3v-2h-2l-5-5-6-7-4-6-7-6v-2h-2z" fill="#FDCEAF"/>
<path transform="translate(1178,421)" d="m0 0 4 2 9 7 12 11 9 9 5 6 8 7 12 14 12 16 11 16 10 15 2 6-4-4-7-11-9-12-10-14-9-12-8-8-7-8-9-9-7-8-5-6-8-6v-2l-4-2-7-6z" fill="#5B3418"/>
<path transform="translate(1461,1152)" d="m0 0 9 1 10 4 11 8 5 6v6l-7-2-13-9-9-6v-2l-5-2z" fill="#5B3418"/>
<path transform="translate(1068,1580)" d="m0 0m-3 1h3v2l-23 5-28 3h-21l-22-2-17-3-8-2-1 3v-5h7l16 4 16 1h31l23-2z" fill="#FDCEAF"/>
<path transform="translate(1412,1168)" d="m0 0 4 1 4 15 3 11v7h-3l-2-4h-2v-2l-5-2-4-7 2-9 2-7z" fill="#5B3418"/>
<path transform="translate(1068,1582)" d="m0 0h5l1 5-7 6-8 4-7 1-3-2 15-5 6-3 2-4-19 5-20 3-31 1-22-1-7-1-9-3v-1l10 1 22 2h21l28-3z" fill="#CF9D72"/>
<path transform="translate(816,642)" d="m0 0v3l-7 11-17 34-2 6-11 27-10 30-5 20h-2l1-7 6-21 10-30 6-16 5-12 10-21 14-22z" fill="#FDCEAF"/>
<path transform="translate(1153,1502)" d="m0 0 4 1-18 10-21 10-5 1v2l-14 4-37 6-29 3h-19l4-2 30-2 17-2 26-5 12-1v-2l17-6 10-5 9-4 11-6z" fill="#7A5132"/>
<path transform="translate(939,334)" d="m0 0 2 1-14 12-14 14-10 13-3 4v4l7-1-1 2-8 1-1 2-5-1-1-2 5 1v-9l-1-4-4-2-8-6-9-7-13-8 2-1 16 9 8 5 4 1v4h2v2l9 1 5-5 11-12 8-7 10-9z" fill="#5B3418"/>
<path transform="translate(980,251)" d="m0 0m-1 1m-1 1m-2 1h2l-1 3-15 8-13 10-10 9-5 5-8 7-10 14-4-2 5-8 2-3h2l1-3 6-5 5-6 5-3 3-5 6-3 2-3 7-4 5-4h3v-2l8-4z" fill="#61391D"/>
<path transform="translate(1159,1060)" d="m0 0h7l-3 3-16 8-16 12-4 2-2 4-3 1-2-5 5-5 6-7 14-8z" fill="#FBF0E7"/>
<path transform="translate(562,547)" d="m0 0 1 2-11 28-1 6h-2l-2 9-4 10-4-2v-14l1-16 2-1 1 10 4 1 2-4h2v-9l3-3 2-8h2l2-8z" fill="#C79970"/>
<path transform="translate(1420,1249)" d="m0 0 4 1v9l-2 14-6 31-5 26-5 24-1 6h-2l-1 8-2 4 1-10 5-25 7-36 6-28 3-15v-6z" fill="#71492C"/>
<path transform="translate(484,1254)" d="m0 0 1 3-2 5v5l3-10h1l-1 10v17l3 12 8 15 9 12 3 2v2l4 2 7 8-1 2-13-12-10-11-8-13-5-11-2-6v-25z" fill="#D19D74"/>
<path transform="translate(968,1129)" d="m0 0h1v97l-4 24 4-1v2l-4 1-2-2v-12h1l1-37 1-11z" fill="#C99A71"/>
<path transform="translate(794,580)" d="m0 0 1 4-2 4h-2l-1 7-3 3-7 10-3 6-2 2-2 5-2 3h-2l1 4-2 5-2 2-2 4v2h-3v3l-2 1 1 2-6 3 3-9 11-21 11-17 12-19z" fill="#5B3418"/>
<path transform="translate(1044,1597)" d="m0 0 7 1-3 2-10 3-21 2h-17l-12-2-9-2-3-1v-2l12 1 15 1h15l21-2z" fill="#D8A076"/>
<path transform="translate(442,671)" d="m0 0 1 3-4 12v6l3 3-2 9-5 9-3 1-2 6-4 11-7 25-2 7-1-4 3-16h2l2-10 8-26 7-25z" fill="#CC9C73"/>
<path transform="translate(630,388)" d="m0 0 2 1-12 12h-2l-1 3-8 7-20 20-1 2h-2l-2 4-5 3-22 22-10 14-20 30-1-3 10-14 11-17 10-13 44-44 8-7 10-10 8-7z" fill="#FDD7B9"/>
<path transform="translate(487,1213)" d="m0 0 2 1-7 7h3v-2l4-1-1 2h-2v2l-5 1v2l-9 6h-2l-2 4h-2l-2 5-2 1-1-3-2 5v4l2-2 1 4-1 2v24l3 14-1 3-3-10-2-10-1-10v-23l5-6 17-13z" fill="#CF9D72"/>
<path transform="translate(1067,1584)" d="m0 0h5l-1 4-5 3-13 5-20 4-15 1h-15l-21-2-6-1v-1h12l1 1h20l20-1 26-5 10-3 5-2h-4l-12 3-12 2h-9v-1l24-4z" fill="#734B2D"/>
<path transform="translate(1258,537)" d="m0 0 4 1 3 4v2h2l4 7 6 10 9 19 5 11 1 5h-3l-1-5h-2l-3-6-1-6-4-7v-3h-2v-4l-4-1-6-10-3-4v-4h-2l-4-5z" fill="#F2C2A2"/>
<path transform="translate(542,453)" d="m0 0 2 1-12 16-16 23-9 14-10 16-14 23-4 5 1-5 1-3h2l2-5 1-3h2l2-5 7-15 4-4 4-8h2l2-5 3-5 7-9 3-6 4-6h2l2-4 11-14z" fill="#643C20"/>
<path transform="translate(388,827)" d="m0 0h1l-1 9-5 24-6 39v27l4-9 1-3h2l-1 9-3 9-3 4-4-1v-16l3-30 7-41z" fill="#EEC4A2"/>
<path transform="translate(773,327)" d="m0 0h18l23 3 24 6 21 8v2l-10-3-15-5-23-5-15-2h-39l-10 1 4-2 11-2z" fill="#6C4427"/>
<path transform="translate(533,1202)" d="m0 0 5 2 8 6 3 4v12h-1l-1-9-8-10-6-2-3 9-8 14-8 11-7 7-6 5-5 12-1 5v16l1 6-2-1-2-8v-13l3-14h2l2-5 9-8 5-5 7-10 10-18z" fill="#835B3C"/>
<path transform="translate(1456,467)" d="m0 0 5 3 2 6h2l3 5 7 6 2 5h2l8 11 9 12 14 22 3 5 1 6-3-3-14-22-10-14-12-16-13-16-6-8z" fill="#643D20"/>
<path transform="translate(1558,1240)" d="m0 0h1l1 7v25l-4 15-9 25-9 22-11 21-11 17-5 6v-3l7-10 9-15 8-15 6-15 7-20 4-10 4-13 2-12v-14h-1z" fill="#CE9D72"/>
<path transform="translate(1511,1206)" d="m0 0 10 2 17 9 11 8 8 7 3 6 1 5v29h-1l-1-25-2-10-6-8-16-11-14-7-7-2 3 10 7 12 11 14 2 5-5-3-10-14-8-14-3-7z" fill="#835B3C"/>
<path transform="translate(745,411)" d="m0 0h32l26 3 27 6 16 6 21 10 1 2-6-2-15-7-17-6-25-6-19-3-10-1h-21l-26 3-9 1v-2l15-3z" fill="#5B3418"/>
<path transform="translate(715,557)" d="m0 0h11l1 3-3 3-17 8-4 5h-2v2h-3l1-7 4-6 5-5z" fill="#5B3418"/>
<path transform="translate(513,1187)" d="m0 0 7 1 5 5 2 3-5-2-6-4-4 2-10 11-5 4-8 4-11 9h-2v2l-11 8-7 6-1 2v35h-1l-1-7v-29l6-7 4-3h2v-2l8-6 10-8 10-7 15-15z" fill="#5B3418"/>
<path transform="translate(1410,1409)" d="m0 0h2l-1 8-1 4v7l8 3 11 2h12l14-3 17-10 5-4 2 1-5 6-13 7-10 4-14 3h-9l-12-3-6-1-4-3 2-13z" fill="#6C4527"/>
<path transform="translate(785,300)" d="m0 0h38l24 3 17 4 1 3-27-6-25-2-26 1-15 2-10 2-19 5-3-1 4-3 17-4 9-1 10-2z" fill="#674023"/>
<path transform="translate(1502,876)" d="m0 0 5 1 10 10 8 6v2l4 2 14 11v2l5 2 6 5 7 4 9 6-2 1-7-3-14-9-12-10-10-8-10-9-8-7z" fill="#70492B"/>
<path transform="translate(759,340)" d="m0 0h16l16 1 5 2v1h-24l-19 2-19 5-5 1v-2h2l2-4 10-3 6 1v-2z" fill="#61391D"/>
<path transform="translate(581,437)" d="m0 0v3l-8 10-4 3h-2l-2 5-9 10-4 6-7 10-6 8-9 13-3 4-2-1 28-42 11-12z" fill="#FDCEAF"/>
<path transform="translate(1315,389)" d="m0 0 4 2 5 3v2l5 1 5 5 3 2v2l4 2 8 7 3 5 5 3v2l4 2 8 5 4 5 2 6 10 10-1 2-11-11-7-8-13-13-8-7-11-10-11-9-8-7z" fill="#6B4426"/>
<path transform="translate(399,781)" d="m0 0 1 2-14 56-6 31-2 12h-1l1-14 6-31 1-4v-12l4-11 1-10 6-12z" fill="#643D20"/>
<path transform="translate(843,1060)" d="m0 0 9 2 12 5 6 4 9 8-2 5 5 5-1 3-9-11-14-11-14-7z" fill="#F2CDAD"/>
<path transform="translate(933,1765)" d="m0 0 10 2 21 5 22 3v2h27l23-1 17-1v1l-16 2-10 1h-33l-31-4-16-4-13-4z" fill="#643D20"/>
<path transform="translate(1395,1390)" d="m0 0h1l-1 10-3 20-8 32-6 19-3 12-2 2 2-10 2-13 6-21 8-32z" fill="#6F482A"/>
<path transform="translate(1290,979)" d="m0 0h6l1 3v3l1 2 3 2-1 5h3v5l-3 2 2 6h-3l-8-15-4-11z" fill="#D8A275"/>
<path transform="translate(1089,957)" d="m0 0h5l-6 7-7 9-4 11-3 12h-3l-1-1 1-12 5-12 7-9z" fill="#4A240D"/>
<path transform="translate(1293,1015)" d="m0 0 6 4 4 9 6 9 5 9v2h2l7 17-1 3-5-9-10-16-9-14-5-11z" fill="#C4966D"/>
<path transform="translate(918,306)" d="m0 0 4 4v-2l2 1-13 18-6 11-3 9-2 10h-2l-1 2 1-11 6-16 4-9 5-10z" fill="#F4CEB0"/>
<path transform="translate(572,588)" d="m0 0 1 4-10 29-4 8h-3l1-13 3-13h3l4-4h2l2-9z" fill="#F8A987"/>
<path transform="translate(954,288)" d="m0 0h5v2l-18 7-5 4h-2v2l-4 3h-2v2h-2v2h-2l-2 4-6 9-12 23-3 8-1-4 3-11 6-10 7-11 11-13 10-9 14-7z" fill="#CE9C72"/>
<path transform="translate(1618,1048)" d="m0 0 7 1 3 8v6l-3 3-5-2-6-6v-2h-2l2-7z" fill="#5B3418"/>
<path transform="translate(913,958)" d="m0 0 5 1 8 7 5 7 4 13v11l-2 1-7-21-6-10-7-8z" fill="#4D270F"/>
<path transform="translate(788,1664)" d="m0 0 4 2 10 9 13 12 16 13 17 13 11 8-3 1-7-5v-2l-5-2-11-8v-2l-4-1-2-1v-2l-4-2-8-7-6-4-5-5v-2l-5-2v-2l-4-2-7-7z" fill="#6D4628"/>
<path transform="translate(625,623)" d="m0 0 2 1-4 21-4 10-4-1-1-5 1-12 1-3h4l2-4z" fill="#F9A987"/>
<path transform="translate(422,696)" d="m0 0h1l-1 8-11 36-4 15h-1l1-15 1-5 2-7 3-9-1-5 3-1v-6h2l-1-5 5-5z" fill="#60391C"/>
<path transform="translate(915,961)" d="m0 0 5 5 6 9 4 10-1 4-4-1 1 2v6l-2-4-5-12-3-6 1-4v-3h-2l-1-5z" fill="#F6D1B2"/>
<path transform="translate(699,1217)" d="m0 0 5 2 6 5 3 5 8 6 1 4-2 2-5-1-2-1v-2h-2l-9-11v-2h-2l-2-5z" fill="#FDCEAF"/>
<path transform="translate(1487,1195)" d="m0 0h3l1 3-5 3-6 9-6 14-3 10v8l12 6 9 3-4 1-12-3-8-5-1-7 5-17 2-5h2v-5l7-11z" fill="#6B4426"/>
<path transform="translate(678,496)" d="m0 0 1 4-10 15-9 19-2 1 1-11v-2l1-4 1-3h2l2-5 9-11z" fill="#EFC7A6"/>
<path transform="translate(1332,1152)" d="m0 0 1 2h2v3h2l3 5v2h2l5 7 3 5 3 4 1 9-2 2v-4l-4-1-4-7-3-8-6-8-3-8z" fill="#E8A27D"/>
<path transform="translate(1051,1374)" d="m0 0 2 1-9 8-11 7-8 3-13 3h-11l-11-2-12-5-6-4-8-7h3l11 7 11 6 7 2h19l15-4 10-6z" fill="#FDCEAF"/>
<path transform="translate(786,313)" d="m0 0h32l28 4 16 4-2 2-10-2-21-4-24-2-24 1-18 2 3-2z" fill="#FDD3B5"/>
<path transform="translate(1526,1275)" d="m0 0 1 3-3 19-5 11h-2l-1 5-4 4-3-1 2-5 5-10 3-9 1-8h1l1 7 2-14z" fill="#5B3418"/>
<path transform="translate(1143,1014)" d="m0 0 2 1-9 7-10 9-4 4h-2l-1 3-8 7-4 2-2 4-8 7-6 4-5-2-4-5 1-2 6 6 5-2 4-4h2l2-4 4-4h2l1-3 8-7 11-9 7-7z" fill="#FDCEAF"/>
<path transform="translate(604,1392)" d="m0 0 3 1 4 14 3 15-1 7-8 4-20 4-7-1v-2h10l16-4 6-3v-8l-6-23z" fill="#674023"/>
<path transform="translate(613,524)" d="m0 0 2 3 19 1 2 1-1 7-6 11-1-4 4-8-13-2-5-1-3-2 1-5z" fill="#C99A71"/>
<path transform="translate(1203,790)" d="m0 0 2 2 2 7 4 26 5 19 1 7h-3l-3-10v-8h-2l-6-37z" fill="#AD805B"/>
<path transform="translate(637,463)" d="m0 0v3l-6 10-5 10-4 7-2 3h-2l-2 5-9 16-3 1 2-6 7-11 10-17 3-7-2-1z" fill="#D9A375"/>
<path transform="translate(1250,302)" d="m0 0 6 1 2 2 7 3 7 5 5 2 1 2 5 2v3l3-1 4 3v2l5 1-1 2h-3l-16-10-16-9-11-6z" fill="#61391D"/>
<path transform="translate(1025,261)" d="m0 0h37l10 1v1h-42l-2 1-17 2-22 5-6 1 2-2 6-1v-2l11-3z" fill="#FDD5B8"/>
<path transform="translate(772,980)" d="m0 0h9l18 2 2 2-2 2 18 6v1l-8-1-9-3-19-3-4-2z" fill="#FDCEAF"/>
<path transform="translate(1053,461)" d="m0 0h23l17 3 8 3 1 2-16-2-20-2-13-2z" fill="#D6A174"/>
<path transform="translate(1266,628)" d="m0 0 4 2 7 7 2-2 2 1v-2h2l1-3 5 1 1 3-2 6-1 7h-3l-15-16z" fill="#D19F73"/>
<path transform="translate(1535,1215)" d="m0 0 6 2 13 8 7 10 2 5v32l-2 6h-1v-35l-3-9-5-6-14-10z" fill="#5B3418"/>
<path transform="translate(863,310)" d="m0 0 6 1 9 6 6 7 1 10-4-2v-2l-3-1v-2l-13-3-2-2 13 1-2-5-11-6z" fill="#FBD8BB"/>
<path transform="translate(1212,475)" d="m0 0 5 5 7 8v2l-3-1-1 2h2l4 7 2 4h2l2 5h2l3 5 4 8 2 5-4-4-11-16-9-12-7-9 2-3 5 5-7-8z" fill="#CD9C72"/>
<path transform="translate(690,358)" d="m0 0 2 1-16 12-9 6-16 12-13 11-8 7-6 6-2-1 14-14 22-18 19-13z" fill="#5B3418"/>
<path transform="translate(628,1414)" d="m0 0h1l7 29 7 21 8 21 1 5-3-4-4-10v-3h-2l-8-20-3-17-4-16z" fill="#774F31"/>
<path transform="translate(1091,1530)" d="m0 0 4 1-9 3-7 2-24 2-21 2h-44v-1l43-1 36-4z" fill="#CE9C72"/>
<path transform="translate(1494,1205)" d="m0 0 3 3 9 19 8 20 1 8-1 1-14-1-8-2v-1l11 1h9l-2-9-10-23-6-13z" fill="#835B3C"/>
<path transform="translate(582,540)" d="m0 0 1 2-10 24-10 30-5 20-3 6-1-3 7-25 12-35 8-18z" fill="#D19E73"/>
<path transform="translate(1313,389)" d="m0 0 4 2 13 11 11 10 8 7 12 11 12 12-1 2-10-10-2-1v-2h-2v-2l-4-2-17-16-10-9-11-9z" fill="#C99A71"/>
<path transform="translate(816,351)" d="m0 0 10 1 8 2 3-1 20 9 7 3 3 3v2l-4-1-20-9-18-6-9-2z" fill="#C7986F"/>
<path transform="translate(708,624)" d="m0 0 2 1-17 11-9 5-4 2-1-4 5-5 18-8z" fill="#5B3418"/>
<path transform="translate(606,1414)" d="m0 0h2l1 3v8l-2 3-10 3-15 1-16-3-10-4 4-1 19 5h10l13-2 5-2z" fill="#FDCEAF"/>
<path transform="translate(1500,1395)" d="m0 0 1 3h-2l-1 5-4 5-8 7-9 7-3-1 14-15 7-7z" fill="#633C1F"/>
<path transform="translate(868,1729)" d="m0 0 8 6 14 10 19 10 21 8 3 2-8-1-18-7-16-8-11-8-8-6-4-4z" fill="#6A4225"/>
<path transform="translate(527,1196)" d="m0 0 3 2v5l-4 7-7 4-6 9-7 7-1 3-5 2 2-4 8-10 7-9h2l1-3 7-7z" fill="#835B3C"/>
<path transform="translate(487,1213)" d="m0 0 2 1-7 7h3v-2l4-1-1 2h-2v2l-5 1v2l-9 6h-2l-2 4h-2l-2 5-2 1-1-5 6-7 12-9z" fill="#DDA179"/>
<path transform="translate(525,1197)" d="m0 0 3 1-1 5-5 6-5 4-8 10-5 6v-3-1l-2-3 6-4 9-9 3-5h2l2-5z" fill="#E9A47F"/>
<path transform="translate(1071,246)" d="m0 0 17 1 9 2 13 2 11 3v2l2 1h-4v-2l-10-1-26-4-21-2v-1z" fill="#694225"/>
<path transform="translate(1162,1724)" d="m0 0 2 1-8 7-22 15-9 6-2-1 5-5 10-7 14-10 6-3z" fill="#663F22"/>
<path transform="translate(576,1266)" d="m0 0 4 1 2 9v11l-2-4-2-13-5 2-13 12-8 7-1-3 5-5 3-1 7-8 4-4h3l1-3z" fill="#724B2D"/>
<path transform="translate(1505,1273)" d="m0 0h13l3 2 1 9h-1l-2-8h-12l-24 1-14-1-4-1v10l-2-1-1-7 2-3h33z" fill="#5C3518"/>
<path transform="translate(494,1207)" d="m0 0 1 2-10 7-12 10-13 10-2 3v23l1 16h-1l-2-15v-25l5-6 13-10h2v-2l13-10z" fill="#835B3C"/>
<path transform="translate(1523,1169)" d="m0 0 6 5 9 11 10 13 7 9 1 5-6-2-6-5h3l4 2-10-14-10-13-8-9z" fill="#835B3C"/>
<path transform="translate(753,651)" d="m0 0 2 4-5 12-3 5-7 19-7 23h-1l1-8 12-36z" fill="#5B3418"/>
<path transform="translate(1153,1502)" d="m0 0 4 1-18 10-21 10-12 4h-3v-2l17-6 10-5 9-4 11-6z" fill="#694225"/>
<path transform="translate(1468,1309)" d="m0 0 2 2 2 11-3 15-4 8-9 10-21 14-2-1 11-8 13-9 5-6 5-10 2-8v-12z" fill="#835B3C"/>
<path transform="translate(469,1306)" d="m0 0 3 4 4 9 8 16 11 21 9 14v3l-4-5-8-13-7-12-8-16-8-17z" fill="#CD9C72"/>
<path transform="translate(578,413)" d="m0 0 2 1-14 15-13 14-8 10-1-3 4-5 7-9h2l2-4 6-7 8-7z" fill="#633C1F"/>
<path transform="translate(1401,413)" d="m0 0 4 2 3 2v2l4 2 3 5v4l-4-2-16-12-1-2 5 2h2z" fill="#FCD7B9"/>
<path transform="translate(638,394)" d="m0 0m-1 1m-1 1m-1 1v3l-24 24-7 8-8 7h-2v2l-2-1 7-8 6-5 5-6 8-7z" fill="#835B3C"/>
<path transform="translate(589,1499)" d="m0 0 2 3 5 25 1 13v20l-1 5h-1l-1-34-2-12-3-15z" fill="#835B3C"/>
<path transform="translate(596,1245)" d="m0 0v3l-1 1 1 10 7 32v5l-2-1-9-39v-7z" fill="#6D4528"/>
<path transform="translate(1305,1006)" d="m0 0 4 2 5 20-1 2-12-19v-2z" fill="#D9A177"/>
<path transform="translate(627,585)" d="m0 0h1l-1 9-6 24-5 19-1 6-2 1-2 3 1-7 2-11h2l2-10 6-21z" fill="#D19E73"/>
<path transform="translate(801,329)" d="m0 0h8l25 6 18 6 7 3v2l-10-3-15-5-13-3v-2l-13-2-7-1z" fill="#714A2C"/>
<path transform="translate(1415,1396)" d="m0 0h1l-1 10-3 14v7l10 3 9 1v2h10v1h-12l-18-4-2-2v-7z" fill="#CC9C71"/>
<path transform="translate(697,1324)" d="m0 0h2l1 2v7l-5 3-13-1-10-5-1-4 9 3 7 3h9l3-1z" fill="#DCA179"/>
<path transform="translate(1340,1106)" d="m0 0 3 3 5 8 4 8v2h2l2 7h2l5 10v2h2l2 5-1 3-6-9-6-11-6-10-8-16z" fill="#C2946C"/>
<path transform="translate(1235,984)" d="m0 0 3 1 1 4-2 1-2 2h-8v1h-10l-21 3h-5l3-2 28-4 11-3z" fill="#FDCEAF"/>
<path transform="translate(525,506)" d="m0 0 1 3-1 4-11 15-9 14-3 2 2-5 6-9 3-7 7-10z" fill="#FDD2B4"/>
<path transform="translate(421,959)" d="m0 0 4 1-12 12-7 8-11 13-1-3h2l1-4 9-10 7-8z" fill="#70492B"/>
<path transform="translate(1369,609)" d="m0 0 1 2-6 13-4-1-1-4-9-3h-8l-8 3-2 9h-1v-7l2-4 11-4 8 1 11 5 5-9z" fill="#C99A71"/>
<path transform="translate(745,1623)" d="m0 0 4 2 32 30 8 7-1 2-10-9-5-4-5-5-8-7-4-5-5-3z" fill="#6F482A"/>
<path transform="translate(553,1426)" d="m0 0 6 1 15 5 20 1v1l-6 1h-21l-14-7z" fill="#6E4629"/>
<path transform="translate(843,1060)" d="m0 0 9 2 12 5 2 2h-3l1 2 5 3-2 3-9-7-14-7z" fill="#F3CDAE"/>
<path transform="translate(1357,425)" d="m0 0 4 2 8 5 4 5 2 6 10 10-1 2-11-11-7-8-9-9z" fill="#674023"/>
<path transform="translate(1189,276)" d="m0 0 11 3v2l8 2 10 5 10 2 2 3 6 3-3 1-28-12-15-6z" fill="#663F22"/>
<path transform="translate(1484,503)" d="m0 0 5 5 12 17 6 7 6 10 1 6-3-3-14-22-10-14-3-4z" fill="#785032"/>
<path transform="translate(964,1587)" d="m0 0 10 1 39 3v2l-33-1-7-1-9-3z" fill="#CA966D"/>
<path transform="translate(533,1202)" d="m0 0 5 2 8 6 3 4v12h-1l-1-9-8-10-6-2-3 9-5 9h-2l2-6z" fill="#835B3C"/>
<path transform="translate(582,510)" d="m0 0 1 3-18 36-4 10h-2l1-5 12-25z" fill="#6E4629"/>
<path transform="translate(768,347)" d="m0 0h41l-1 2-44 1v-2z" fill="#E8BE9C"/>
<path transform="translate(575,1460)" d="m0 0h3l7 21 4 13v5l-2-3-1-7h-2l-9-27z" fill="#744C2F"/>
<path transform="translate(1220,488)" d="m0 0 4 2 2 4 10 11v3h2l5 10-4-2-5-6v-3h-2l-2-5h-2l-6-8v-3h-2z" fill="#FDCEAF"/>
<path transform="translate(1416,425)" d="m0 0 4 2 20 20 6 7 8 7 2 6-17-17-7-8-16-16z" fill="#744C2E"/>
<path transform="translate(651,354)" d="m0 0 2 1-11 8-18 13-4 2 2-4 11-9 15-10z" fill="#643D20"/>
<path transform="translate(1210,325)" d="m0 0 6 2 16 7v2l9 3 10 4 3 2v2l-6-2-19-9-14-6v-2l-5-1z" fill="#6A4225"/>
<path transform="translate(699,423)" d="m0 0 3 1-20 9-14 8-2-1 3-1 2-4 22-11z" fill="#70492B"/>
<path transform="translate(1434,1297)" d="m0 0h1l-1 11-9 46h-1v-12l3-14 2-6z" fill="#785032"/>
<path transform="translate(604,391)" d="m0 0 2 1-8 8-9 7-6 7-6 5-1 3h-2l-2 4-7 6-2-1 11-11 6-7 6-5 5-5z" fill="#DDAF89"/>
<path transform="translate(580,1456)" d="m0 0h3l4 9 1 9h-3v-2h-2l-4-12z" fill="#D9A375"/>
<path transform="translate(1371,1206)" d="m0 0 5 1 1 3 4 2 11 12 6 6 5 3 4 6-4-2-15-14-13-13h-5z" fill="#7C5536"/>
<path transform="translate(617,378)" d="m0 0 3 1-11 9-2 3-5 3-12 11-1-3 4-4h2v-2h2l1-3 4-3h3l2-4h2l1-3z" fill="#6C4427"/>
<path transform="translate(907,325)" d="m0 0 3 2-2 5-5 10-3 15h-2l-1 2 1-11 6-16z" fill="#EEBF9D"/>
<path transform="translate(624,1277)" d="m0 0 5 4 5 9 9 10 8 7 4 5h-3l-16-16-8-10-4-6z" fill="#7A5234"/>
<path transform="translate(514,1189)" d="m0 0 6 2 2 2v4l-4 1h-3l-5 4-2-1 7-8-5 3-6 7-2-1z" fill="#DCA376"/>
<path transform="translate(1331,709)" d="m0 0 2 2 4 17 1 9-2-2-7-19-1-6 2 1z" fill="#C7986F"/>
<path transform="translate(1540,1252)" d="m0 0 4 2 1 5-3 7-5 6-4 4-3 19h-1l1-11 1-9 3-4h2l5-10z" fill="#D4A074"/>
<path transform="translate(1039,292)" d="m0 0h6v2l-26 6-14 4-4-1 22-7z" fill="#5B3418"/>
<path transform="translate(548,1355)" d="m0 0 5 2 6 5 9 5 15 9 2 3-5-2-18-10-14-10z" fill="#835B3C"/>
<path transform="translate(363,1061)" d="m0 0h1l-1 11-3 26 3-6 1 4-3 8h-3v-11l3-22z" fill="#835B3C"/>
<path transform="translate(414,721)" d="m0 0h1l-1 9-7 25h-1l1-15 1-5 2-7z" fill="#633C1F"/>
<path transform="translate(431,666)" d="m0 0 2 1-1 4-8 27-2-4-1-5 3-5 3-6 1-6h2z" fill="#613A1E"/>
<path transform="translate(1472,1224)" d="m0 0 1 4-2 6v8l12 6 9 3-4 1-12-3-8-5-1-7h2l1-7z" fill="#754D2F"/>
<path transform="translate(1502,876)" d="m0 0 5 1 10 10 8 6 1 3-5-1-17-16z" fill="#6E4629"/>
<path transform="translate(483,544)" d="m0 0 1 3-3 6h-2l-1 6-9 17-3 6-1-2 7-17 6-12h2l2-5z" fill="#E2B693"/>
<path transform="translate(1030,262)" d="m0 0h30l23 1 7 2v1l-16-1-18-1h-28z" fill="#FDCFB0"/>
<path transform="translate(606,611)" d="m0 0h1l-1 9-6 21h-2v7l-2 5h-1l1-10z" fill="#6F472A"/>
<path transform="translate(513,1187)" d="m0 0 7 1 5 5 2 3-5-2-6-4-4 2-10 11-5 4-2-1 13-13z" fill="#6F482A"/>
<path transform="translate(1159,1060)" d="m0 0h7l-3 3-15 7v-2l-5-1 2-2z" fill="#D5A884"/>
<path transform="translate(956,1344)" d="m0 0 2 1v5l-4 3 1 1 13 1v1l-12 1-6-3-2-5z" fill="#673F23"/>
<path transform="translate(1512,1276)" d="m0 0h6l1 4-2-1-34 1-12-1-3-2h36z" fill="#C99A71"/>
<path transform="translate(1140,499)" d="m0 0 5 2v2l6 2 10 7 1 3h-3l-1 3-12-13-6-5z" fill="#C99A71"/>
<path transform="translate(911,959)" d="m0 0 4 1v7h2l1 7-4-2-7-8v-2h2v-2z" fill="#FBF2EA"/>
<path transform="translate(1281,573)" d="m0 0h2l4 8 5 13v2h-3l-1-5h-2l-3-6-1-6-2-5z" fill="#F2C3A2"/>
<path transform="translate(826,1697)" d="m0 0 4 2 15 12 11 8 3 3-5-1-5-4v-2l-5-2-11-8v-2l-4-1-2-1z" fill="#6E4629"/>
<path transform="translate(466,574)" d="m0 0 2 1-8 19-4 12-4 2-1-3h2l3-9 5-11 4-9z" fill="#633C20"/>
<path transform="translate(1113,557)" d="m0 0h7l6 4 1 4-3 1-12-6z" fill="#5B3418"/>
<path transform="translate(1523,1244)" d="m0 0 6 1 4 4-2 4-4 1-5-5z" fill="#835B3C"/>
<path transform="translate(1477,1416)" d="m0 0 2 1-5 6-13 7-7 3h-6l3-2 8-3 17-11z" fill="#6E4629"/>
<path transform="translate(484,1254)" d="m0 0 1 3-2 5v19l5 16 2 5-2 1-5-11-2-6v-25z" fill="#DEA478"/>
<path transform="translate(689,467)" d="m0 0 2 1-10 9-8 7-11 12-4 4 2-5 14-15 8-8z" fill="#5B3418"/>
<path transform="translate(1210,309)" d="m0 0 5 1 5 2v2l9 3 22 11 1 2-5-1-19-10-14-6v-2z" fill="#623B1E"/>
<path transform="translate(1126,1748)" d="m0 0 2 1-8 7-11 5-9 2-6 1 3-2 21-9z" fill="#744D2F"/>
<path transform="translate(562,547)" d="m0 0 1 2-10 26h-2v-8l3-3 2-8h2l2-8z" fill="#C99A71"/>
<path transform="translate(658,522)" d="m0 0 3 1-2 7-1 5h-2l-2 6-2 2-1-2v-6l1-2h2l1-4z" fill="#FEFCF9"/>
<path transform="translate(534,466)" d="m0 0 1 2-5 9-12 17-3 1 2-5 12-17z" fill="#E7BB97"/>
<path transform="translate(612,1422)" d="m0 0h2l-1 7-8 4-20 4-7-1v-2h10l16-4 7-2z" fill="#613A1E"/>
<path transform="translate(1539,1330)" d="m0 0 1 3-3 6-1 6-3 6h-2l-1 4-5 3 2-5z" fill="#6F482A"/>
<path transform="translate(1068,1582)" d="m0 0h5l1 5-7 6-8 4-7 1-3-2 15-5 6-3 2-5z" fill="#D19E73"/>
<path transform="translate(390,871)" d="m0 0h2l-1 12-6 31h-1l1-11 2-11 2-16z" fill="#D7A982"/>
<path transform="translate(729,336)" d="m0 0 4 1-11 4h-2v2l-8 4h-4l-1 3-7 4-2-1 5-3 5-5 16-7z" fill="#724A2D"/>
<path transform="translate(954,288)" d="m0 0h5v2l-18 7-5 4-2-1 5-5 12-6z" fill="#CC9B71"/>
<path transform="translate(1280,539)" d="m0 0 16 12 9 2v2l-10-1-6-4-4-5h-4z" fill="#C4966D"/>
<path transform="translate(1296,979)" d="m0 0 4 1 2 3 3 14h-2v-3h-3v-5l-3-2-2-3z" fill="#F2A683"/>
<path transform="translate(1094,959)" d="m0 0 3 1-1 5-4 4-5 1-4 2v-3l8-7z" fill="#FEF9F5"/>
<path transform="translate(495,878)" d="m0 0 1 2-13 24-3 1 2-6 8-13 3-6z" fill="#C99A71"/>
<path transform="translate(562,585)" d="m0 0h2l-2 9-6 21h-1v-8l3-11 1-6h2z" fill="#6A4225"/>
<path transform="translate(1210,829)" d="m0 0h2l4 15 1 7h-3l-3-10z" fill="#C99A71"/>
<path transform="translate(403,812)" d="m0 0h1l-1 9-6 29h-1l1-10 3-20z" fill="#DEB08B"/>
<path transform="translate(435,646)" d="m0 0h4l-2 9-4 12-2-1v-6l4-13z" fill="#60381C"/>
<path transform="translate(1509,1204)" d="m0 0 10 2 2 2-10-2 2 9 5 10-1 2-6-10-2-4-1-8z" fill="#5B3418"/>
<path transform="translate(1162,293)" d="m0 0 8 1 27 9-3 1-16-4-6-2v-2l-10-2z" fill="#764E30"/>
<path transform="translate(1045,1598)" d="m0 0h6l-3 2-10 3-16 1 1-3 19-2z" fill="#E0A479"/>
<path transform="translate(1548,1312)" d="m0 0 1 2-7 19-4 8h-2l2-6 3-10h2l3-10z" fill="#5F371B"/>
<path transform="translate(664,1320)" d="m0 0 5 1 6 4 15 6 6 1v1h-9l-16-7-7-5z" fill="#6D4528"/>
<path transform="translate(1544,910)" d="m0 0 9 6 16 10 1 2-7-2-10-6-5-5-4-3z" fill="#653D21"/>
<path transform="translate(1287,551)" d="m0 0 2 1 3 7 2 2v4h2l2 5-1 3h-2l-8-18z" fill="#EFA783"/>
<path transform="translate(735,412)" d="m0 0h20v1l-26 3-9 1v-2z" fill="#70492B"/>
<path transform="translate(841,319)" d="m0 0 9 1 18 6 2 1v2l4 2h-3l-11-5-9-3-10-3z" fill="#D9A375"/>
<path transform="translate(1464,1279)" d="m0 0 2 3 8 13 3 5v5l-3-4-4-6v-4l-4-2-2-4z" fill="#70482B"/>
<path transform="translate(788,1664)" d="m0 0 4 2 10 9 5 6h-3v-2l-5-2v-2l-4-2-7-7z" fill="#694124"/>
<path transform="translate(1509,1380)" d="m0 0 1 3-1 4-7 8-6 4 2-4z" fill="#6C4527"/>
<path transform="translate(425,959)" d="m0 0m-1 1m-1 1m-1 1m-1 1m-1 1m-1 1m-1 1m-1 1 1 3-14 14-6 7v-3l12-13z" fill="#C99A71"/>
<path transform="translate(339,853)" d="m0 0 2 1v6l4 2-9 1-3-2 2-5z" fill="#623A1E"/>
<path transform="translate(1207,803)" d="m0 0 2 1 2 13 4 16v5l-2-2-3-11-3-17z" fill="#7C5436"/>
<path transform="translate(1157,266)" d="m0 0 8 1 23 8v3l-27-10z" fill="#694225"/>
<path transform="translate(1514,1209)" d="m0 0 7 1 5 2-3 1-7-1 4 10 5 8-1 2-6-9-4-9z" fill="#C99A71"/>
<path transform="translate(1480,853)" d="m0 0 8 6 5 5 3 5 6 7-4-2-11-11-7-8z" fill="#835B3C"/>
<path transform="translate(630,388)" d="m0 0 2 1-12 12h-2l-1 3-8 7-4 2 6-7 8-8 8-7z" fill="#FDD3B5"/>
<path transform="translate(663,1517)" d="m0 0h2l10 16 9 12-1 2-10-12-8-14z" fill="#5B3418"/>
<path transform="translate(570,1270)" d="m0 0 2 1-12 13-8 7-1-3 5-5 3-1 7-8z" fill="#633C1F"/>
<path transform="translate(1514,1249)" d="m0 0h2l1 7-1 1h-15l-13-4 4-1 15 3h7z" fill="#5B3418"/>
<path transform="translate(737,614)" d="m0 0h10l2 2-4 3h-8l-2-3z" fill="#F5C2A2"/>
<path transform="translate(494,523)" d="m0 0h2l-2 5-11 18-4 5 1-5 1-3h2l2-5 1-3h2l2-5z" fill="#653E21"/>
<path transform="translate(383,914)" d="m0 0h1l-1 9-3 9-3 4-4-1v-16h1v14l3-1 5-13z" fill="#CA9A71"/>
<path transform="translate(1549,573)" d="m0 0h3v2l8 2 1 4-11-3 1 4h-2l-2-3v-5z" fill="#7C5334"/>
<path transform="translate(1261,544)" d="m0 0 4 2 4 7 3 4 2 8-4-4-6-10-1-5h-2z" fill="#F9A987"/>
<path transform="translate(1224,490)" d="m0 0 6 5 10 13 2 1-1 3-3-2v-2h-2l-3-5-2-4-3-1-5-6z" fill="#CC9B70"/>
<path transform="translate(891,340)" d="m0 0 2 3 4 7 1 3 1 8-3 1-3-12-2-4-3-3h3z" fill="#CF9E73"/>
<path transform="translate(1439,1270)" d="m0 0 5 2 1 5-5-4-3 18h-1v-12z" fill="#6E4729"/>
<path transform="translate(1284,631)" d="m0 0 5 1 1 3-2 6-1-4-3 1h-3-3l1-3 2 1v-2h2z" fill="#C99A71"/>
<path transform="translate(1536,1268)" d="m0 0m-2 1h2v2l-4 4-2 14-2 4v-10l1-10z" fill="#C99A71"/>
<path transform="translate(646,1243)" d="m0 0 2 3 7 20 1 5h-2l-7-19z" fill="#6E4629"/>
<path transform="translate(370,1036)" d="m0 0h2l-2 9-5 16-2-2 1-6z" fill="#6C4527"/>
<path transform="translate(1458,554)" d="m0 0h2l7 15 4 8-1 2-3-3-9-20z" fill="#6C4527"/>
<path transform="translate(1258,537)" d="m0 0 4 1 3 4v2h2l3 7-4-2-3-4-5-3-1-4z" fill="#F2BB9A"/>
<path transform="translate(728,1607)" d="m0 0 7 6 10 9 3 5-5-2-15-16z" fill="#5F381C"/>
<path transform="translate(1153,1502)" d="m0 0 4 1-18 10-6 3-3-1 20-11z" fill="#663F22"/>
<path transform="translate(505,1323)" d="m0 0 4 2v2l4 2 7 8-1 2-13-12z" fill="#DBA078"/>
<path transform="translate(540,1267)" d="m0 0h1l-1 8-8 14 1 2 4 2-4 1-3-2v-6l6-8z" fill="#5B3418"/>
<path transform="translate(606,425)" d="m0 0 4 1-8 8-6 5h-2v2l-2-1 7-8 6-5z" fill="#714A2C"/>
<path transform="translate(514,1213)" d="m0 0h2l-2 4-10 12v-3-1l-2-3 5-2z" fill="#DEA17A"/>
<path transform="translate(421,959)" d="m0 0 4 1-12 12-6 4 2-4 8-8z" fill="#694224"/>
<path transform="translate(816,351)" d="m0 0 10 1 8 2 3-1 7 3v2l-13-2-15-4z" fill="#CE9D72"/>
<path transform="translate(1507,1161)" d="m0 0h9l7 6-1 2-6-5h-7l3 6-1 2-3-3-2-7z" fill="#835B3C"/>
<path transform="translate(1235,984)" d="m0 0 3 1 1 4-2 1-2 2h-7l-2-2 7-3z" fill="#F5C6A6"/>
<path transform="translate(1281,322)" d="m0 0 11 7 7 4v2l5 2 3 3-4-1-11-7-11-8z" fill="#E9BE9C"/>
<path transform="translate(496,1365)" d="m0 0 4 1 8 12-1 3-9-11z" fill="#674023"/>
<path transform="translate(476,1329)" d="m0 0h3l6 11v5l-4-4-3-6z" fill="#684124"/>
<path transform="translate(1282,365)" d="m0 0 5 3 5 2 5 5 5 2-1 2-5-2-13-9z" fill="#BA8C65"/>
<path transform="translate(1507,1159)" d="m0 0h7l6 3 3 3-1 2-6-5h-9l1 7-3-3-1-5z" fill="#5B3418"/>
<path transform="translate(863,310)" d="m0 0 6 1 9 6 4 4-1 2-5-5-7-3-6-3z" fill="#E1B48F"/>
<path transform="translate(838,303)" d="m0 0h9l17 4 1 3-27-6z" fill="#694225"/>
<path transform="translate(1162,1724)" d="m0 0 2 1-8 7-5 2-5 3-2-1 9-7 5-2z" fill="#6B4326"/>
<path transform="translate(1182,1702)" d="m0 0 5 1-1 2h-2v2l-9 6-2-1 4-3v-3l3-1v-2z" fill="#D59F75"/>
<path transform="translate(467,1229)" d="m0 0h3l-1 5-3 1-2 5-2 1-1-5z" fill="#E3A47B"/>
<path transform="translate(1478,1210)" d="m0 0 1 2-5 12h-2l-2 9-2 4 1-8 5-14h2z" fill="#6A4225"/>
<path transform="translate(987,268)" d="m0 0 4 1-8 2v2l-11 5-2-1v-2l14-6z" fill="#FDD5B7"/>
<path transform="translate(395,850)" d="m0 0h1l-1 13-2 8h-1v-13z" fill="#DEB08B"/>
<path transform="translate(1200,780)" d="m0 0 3 3 3 8-1 4-1-3v9l-2-4z" fill="#5B3418"/>
<path transform="translate(956,282)" d="m0 0 2 1-8 6h-2v2l-9 5-2-1 11-8z" fill="#FDD8BB"/>
<path transform="translate(1421,479)" d="m0 0 5 5 7 9-1 2-5-5-6-7z" fill="#6E4729"/>
<path transform="translate(1315,389)" d="m0 0 4 2 5 3v2l5 1 5 8-4-2-9-8-6-5z" fill="#754D2F"/>
<path transform="translate(675,356)" d="m0 0 2 1-11 8-11 7-2-1 19-13z" fill="#FDD4B5"/>
<path transform="translate(508,1379)" d="m0 0 5 5 6 8-1 2-4-2-6-9z" fill="#6C4427"/>
<path transform="translate(1415,1297)" d="m0 0h1l-1 13-2 7h-1v-11z" fill="#694124"/>
<path transform="translate(1229,335)" d="m0 0 5 1 11 5 7 3 2 1v2l-6-2-19-9z" fill="#7A5234"/>
<path transform="translate(575,1460)" d="m0 0h3l4 12v3h-2l-5-13z" fill="#6B4426"/>
<path transform="translate(485,1257)" d="m0 0 1 3-2 7v18l-2-4v-19z" fill="#F9A987"/>
<path transform="translate(1071,614)" d="m0 0h24l-1 5-6-2v-2h-17z" fill="#FACBAC"/>
<path transform="translate(1274,565)" d="m0 0h2v4h2l5 11h-3l-3-5-3-6-1-3z" fill="#F9A987"/>
<path transform="translate(510,528)" d="m0 0v3l-7 11-1 4-5 4 2-6 9-14z" fill="#FDDABD"/>
<path transform="translate(678,496)" d="m0 0 1 4-5 7-2-2-4 3 2-4 4-5z" fill="#EBBD9A"/>
<path transform="translate(873,313)" d="m0 0 6 2 5 4 2 5-1 3-7-9z" fill="#663F22"/>
<path transform="translate(608,1407)" d="m0 0 2 3v3h2l1 2-1 13h-3l1-1v-8l-2-8z" fill="#744C2E"/>
<path transform="translate(1418,1387)" d="m0 0m-1 1 3 2-3 1-4 18h-1v-9l3-10z" fill="#6E4629"/>
<path transform="translate(505,1373)" d="m0 0 7 6 5 6-1 4-9-11z" fill="#DDAD86"/>
<path transform="translate(1516,1320)" d="m0 0v3l-14 14-2-1 11-12z" fill="#D3A073"/>
<path transform="translate(1332,1087)" d="m0 0 2 2 6 13-1 3-1-3h-2l-3-5z" fill="#9F7451"/>
<path transform="translate(1287,980)" d="m0 0h5l2 4-2 7-3-4z" fill="#F3A784"/>
<path transform="translate(1089,957)" d="m0 0h5l-6 7-5 5-1-2 4-5v-3z" fill="#643D20"/>
<path transform="translate(1248,533)" d="m0 0 4 4 3 4v3h-18v-1h15l-4-8z" fill="#C99A71"/>
<path transform="translate(1230,507)" d="m0 0h4l3 5 4 8 2 5-4-4-9-13z" fill="#CC9C71"/>
<path transform="translate(1212,475)" d="m0 0 5 5 7 8v2l-3-1-2 2-2-5h2l-7-8z" fill="#D3A074"/>
<path transform="translate(1498,1337)" d="m0 0 2 1-5 4-9 6-2-1 5-5 5-3z" fill="#D29F73"/>
<path transform="translate(1356,1096)" d="m0 0h2l2 6v7l-3-1-1-3z" fill="#976C4A"/>
<path transform="translate(1148,1064)" d="m0 0h8l-5 5-3 1v-2l-5-1 2-2z" fill="#EFCAAB"/>
<path transform="translate(1067,1584)" d="m0 0h5l-1 4-5 3-5 2h-6l4-2 9-4 1-1-3-1z" fill="#694225"/>
<path transform="translate(948,1582)" d="m0 0h7l9 3v2l-9-2-6-1-1 3z" fill="#E5B590"/>
<path transform="translate(1407,1239)" d="m0 0 5 1 8 7v2l-5-2-8-7z" fill="#6D4629"/>
<path transform="translate(514,1189)" d="m0 0 6 2 1 2-5-1-6 4-6 7-2-1z" fill="#C99A71"/>
<path transform="translate(635,463)" d="m0 0 2 1-11 11v-3l6-7zm-12 12 2 1-5 5 2-5z" fill="#C5946A"/>
<path transform="translate(664,441)" d="m0 0 2 1-12 8-4 3h-2l2-4 9-5z" fill="#734B2D"/>
<path transform="translate(1408,419)" d="m0 0 4 2 3 5v4l-4-2-3-3 1-3z" fill="#F7C7A7"/>
<path transform="translate(1303,350)" d="m0 0 8 4 11 7v2l-5-2-14-9z" fill="#CC9B71"/>
<path transform="translate(841,318)" d="m0 0h9l12 3-2 2-10-2-9-2z" fill="#FDD2B4"/>
<path transform="translate(745,1623)" d="m0 0 4 2 13 12h-3l-3-3-5-3z" fill="#785032"/>
<path transform="translate(1549,1304)" d="m0 0 2 3-1 5-3 3-4 10-1-3z" fill="#774F31"/>
<path transform="translate(509,1192)" d="m0 0 2 1-9 10-5 4-2-1z" fill="#835B3C"/>
<path transform="translate(1305,1006)" d="m0 0 4 2 1 6-2-2-2 1h-3l-2-4z" fill="#CB976D"/>
<path transform="translate(1194,868)" d="m0 0 6 5 2 5v5l-2-2v-3h-3l-3-7z" fill="#EDBD9C"/>
<path transform="translate(617,378)" d="m0 0 3 1-12 10-3-1 4-2 1-3z" fill="#643D20"/>
<path transform="translate(684,1545)" d="m0 0 5 5 6 8-1 2-4-5-5-4-2-4z" fill="#734B2E"/>
<path transform="translate(1091,1530)" d="m0 0 4 1-9 3-7 2h-8v-1l10-1v-2z" fill="#E8B894"/>
<path transform="translate(596,1245)" d="m0 0v3l-1 1v14l-2-3-1-4v-7z" fill="#6B4427"/>
<path transform="translate(907,1054)" d="m0 0 4 3v2h7l3-2-2 4-2 2-5-1-5-6z" fill="#FDCEAF"/>
<path transform="translate(431,666)" d="m0 0 2 1-1 4-4 13-2-4 2-8h2z" fill="#6E4628"/>
<path transform="translate(798,592)" d="m0 0h2l-2 4-6 8-2-1 2-6z" fill="#5B3418"/>
<path transform="translate(614,501)" d="m0 0 1 2-8 14-3 1 2-6 7-10z" fill="#DFA478"/>
<path transform="translate(1456,467)" d="m0 0 5 3 2 6h2l4 6-1 2-12-15z" fill="#734B2E"/>
<path transform="translate(684,352)" d="m0 0 2 1-5 4-7 4-5 4-3-1 13-9z" fill="#D9A375"/>
<path transform="translate(862,1068)" d="m0 0 7 2 3 3v2l-4 2v-3l-6-3z" fill="#FBF0E6"/>
<path transform="translate(1257,349)" d="m0 0 6 1 8 5v2l3 1-2 1-15-9z" fill="#714A2C"/>
<path transform="translate(1091,1764)" d="m0 0h7l-3 2-10 3h-7l4-2z" fill="#6C4527"/>
<path transform="translate(1061,1344)" d="m0 0 5 1 3 3-1 4-2-1-5-4z" fill="#835B3C"/>
<path transform="translate(542,1207)" d="m0 0 7 7v12h-1l-1-9-5-7z" fill="#724A2D"/>
<path transform="translate(1371,1206)" d="m0 0 5 1 1 3 4 2 2 3-4-1-4-4h-5z" fill="#6A4225"/>
<path transform="translate(1203,790)" d="m0 0 2 2 2 7-1 10h-1l-2-13z" fill="#835B3C"/>
<path transform="translate(614,629)" d="m0 0h1l1 8-1 6-2 1-2 3 1-7z" fill="#C19067"/>
<path transform="translate(1215,545)" d="m0 0h5v4 3l1 4h-2l-4-8z" fill="#F3A784"/>
<path transform="translate(525,481)" d="m0 0v3l-7 10-3 1 2-5 6-8z" fill="#EAC09D"/>
<path transform="translate(868,1729)" d="m0 0 16 12-2 1-9-6-5-5z" fill="#6A4326"/>
<path transform="translate(951,1589)" d="m0 0 6 1 10 4v1l-10-1-6-4z" fill="#A97C57"/>
<path transform="translate(1372,1485)" d="m0 0 1 4-6 14-4 2 1-4h2l2-6z" fill="#5F381C"/>
<path transform="translate(1418,1431)" d="m0 0h13v2h10v1h-12l-11-2z" fill="#CC9B71"/>
<path transform="translate(1484,1345)" d="m0 0 1 2-5 5-3 2-4-1z" fill="#CE9D72"/>
<path transform="translate(599,1277)" d="m0 0h1l3 14v5l-2-1-3-13z" fill="#70492B"/>
<path transform="translate(1369,1210)" d="m0 0 3 1-12 11-3 3-2-1z" fill="#A97D58"/>
<path transform="translate(1247,697)" d="m0 0 3 4 2-1 2 12h-2l-5-12z" fill="#C99A71"/>
<path transform="translate(918,314)" d="m0 0v3l-7 10-3 1v-5l5-1 2-5z" fill="#FBCFB0"/>
<path transform="translate(753,306)" d="m0 0h3v2l-13 4-3-1 4-3z" fill="#61391D"/>
<path transform="translate(1107,251)" d="m0 0 9 2 5 1v2l2 1h-4v-2l-10-1-6-1z" fill="#774E30"/>
<path transform="translate(950,1069)" d="m0 0h1l2 9 2 5-1 3-6-12 1-4z" fill="#E7A37E"/>
<path transform="translate(657,522)" d="m0 0 1 3-4 8h-2l-2 5h-2l1-4h2l1-4z" fill="#E2B997"/>
<path transform="translate(674,396)" d="m0 0 3 1-11 11-1-2 7-8z" fill="#E7BB98"/>
<path transform="translate(704,1573)" d="m0 0 5 5 5 8-1 2-5-5-3-7z" fill="#774F31"/>
<path transform="translate(592,1332)" d="m0 0h1l3 14-1 4v-3h-2l-1-4z" fill="#674023"/>
<path transform="translate(608,1319)" d="m0 0 2 4 2 8v6l-2-2-2-7z" fill="#734B2E"/>
<path transform="translate(1483,1316)" d="m0 0h1l1 12 6-3 2 1-8 5-2-3z" fill="#C99A71"/>
<path transform="translate(629,1311)" d="m0 0 7 2 4 4-5-2h-7v2l-2-1v-2z" fill="#FDDBBE"/>
<path transform="translate(644,1301)" d="m0 0 7 6 4 5h-3l-8-8z" fill="#6A4325"/>
<path transform="translate(838,612)" d="m0 0h13l-2 2h-3l-1 4h-3l2-4-6-1z" fill="#FAC5A4"/>
<path transform="translate(761,304)" d="m0 0h11l-2 2-14 2v-2z" fill="#754C2E"/>
<path transform="translate(656,1271)" d="m0 0 3 4 4 8v2h-2l-5-9z" fill="#6F472A"/>
<path transform="translate(1323,1068)" d="m0 0 3 3 5 11-1 3-6-11z" fill="#C99A71"/>
<path transform="translate(822,349)" d="m0 0 9 2 3 1v2l2 1-10-2-3-2z" fill="#EDBE9C"/>
<path transform="translate(1304,1627)" d="m0 0h3l5 8v4l-4-4z" fill="#694123"/>
<path transform="translate(1446,1362)" d="m0 0 4 1-2 3-10 4 1-3 5-3z" fill="#3C1702"/>
<path transform="translate(1528,1355)" d="m0 0 1 3-5 7h-2l1-5z" fill="#633C1F"/>
<path transform="translate(1057,1343)" d="m0 0h4l2 5 4 3-3 3v-4l-5-1v-5z" fill="#633C1F"/>
<path transform="translate(472,1316)" d="m0 0 2 3 4 8v2l-4-2-2-5z" fill="#6C4528"/>
<path transform="translate(1524,1307)" d="m0 0 1 3-7 10-2-3 5-6h2z" fill="#D29F73"/>
<path transform="translate(877,1080)" d="m0 0 5 3v2l2 1-4 2-4-5z" fill="#FEF7F1"/>
<path transform="translate(863,990)" d="m0 0h11l4 1v2h-7l-8-2z" fill="#F8C2A2"/>
<path transform="translate(927,987)" d="m0 0 3 1 1 6-3 2-3-6v-2z" fill="#FFFFFE"/>
<path transform="translate(470,901)" d="m0 0h2l-2 5-6 8-1-3z" fill="#6C4528"/>
<path transform="translate(1526,895)" d="m0 0 6 5 3 5-4-2-7-6z" fill="#734C2E"/>
<path transform="translate(409,784)" d="m0 0h2l-1 8-2 8h-1v-8z" fill="#E0B490"/>
<path transform="translate(522,778)" d="m0 0 1 4-4 12h-1v-7l2-6h2z" fill="#724A2D"/>
<path transform="translate(1447,455)" d="m0 0 7 6 2 6-9-9z" fill="#6C4528"/>
<path transform="translate(574,420)" d="m0 0h2v2h-2l-2 4-7 6-2-1z" fill="#E9BE9B"/>
<path transform="translate(1407,1422)" d="m0 0h1l1 7 7 3-4 2-6-4z" fill="#5B3418"/>
<path transform="translate(523,1324)" d="m0 0 4 2 5 3 2-5h1v7h-4l-8-6z" fill="#C99A71"/>
<path transform="translate(1452,888)" d="m0 0 3 1 5 10-1 3-4-7v-3l-3-1z" fill="#623A1E"/>
<path transform="translate(1223,290)" d="m0 0h5l2 3 6 3-3 1-10-5z" fill="#623A1E"/>
<path transform="translate(816,1690)" d="m0 0 4 1 6 5 1 3-4-2-7-6z" fill="#684124"/>
<path transform="translate(976,1598)" d="m0 0 12 1-4 3-5-1-3-1z" fill="#D19F73"/>
<path transform="translate(1410,1422)" d="m0 0h1l1 5 10 3v1h-8l-5-3z" fill="#D19F73"/>
<path transform="translate(954,1345)" d="m0 0 2 1-4 5 1 4-4-2-1-4z" fill="#805839"/>
<path transform="translate(560,1281)" d="m0 0 2 1-10 9-1-3 5-5z" fill="#6F482A"/>
<path transform="translate(381,1237)" d="m0 0 1 3-10 9v-3l4-5z" fill="#60391D"/>
<path transform="translate(843,1060)" d="m0 0 9 2 3 2-6 1-6-3z" fill="#C4946A"/>
<path transform="translate(1480,853)" d="m0 0 8 6 5 5-1 2-12-11z" fill="#6E4629"/>
<path transform="translate(1441,505)" d="m0 0 4 2 5 8-1 2-5-7-3-2z" fill="#BE9069"/>
<path transform="translate(664,365)" d="m0 0h2l-1 3-7 4-5 3-2-1 10-7z" fill="#D9A375"/>
<path transform="translate(1263,312)" d="m0 0 5 2 9 5-4 1-10-6z" fill="#E9BD9A"/>
<path transform="translate(1045,1598)" d="m0 0h6l-3 2-10 3-1-2z" fill="#DCA377"/>
<path transform="translate(1178,1485)" d="m0 0 3 1-5 4-3 3-4 1v-2l3-1 5-5z" fill="#774F30"/>
<path transform="translate(1416,1432)" d="m0 0 13 1-3 2-10-1z" fill="#6B4427"/>
<path transform="translate(1421,1365)" d="m0 0h1v8l8-2-3 3-6 1-1-5z" fill="#835B3C"/>
<path transform="translate(1303,1011)" d="m0 0 3 1 4 9 1 3h-2l-6-10z" fill="#ECA682"/>
<path transform="translate(1331,709)" d="m0 0 2 2 2 9-3-1-2-4z" fill="#C08F66"/>
<path transform="translate(1289,596)" d="m0 0h4l2 4v5l-3-1v-5h-2z" fill="#E6AD8C"/>
<path transform="translate(1224,490)" d="m0 0 6 5 2 3-1 3v-2l-3-1-5-6z" fill="#D29F73"/>
<path transform="translate(610,470)" d="m0 0v3l-3 4h-2l-2 5-2-1 6-9z" fill="#6D4628"/>
<path transform="translate(1277,361)" d="m0 0 5 1 6 4 1 3-4-2-8-5z" fill="#70492B"/>
<path transform="translate(1121,254)" d="m0 0 5 1 10 3v2l-13-3-2-1z" fill="#674023"/>
</svg>
